<?xml version="1.0" encoding="utf-8"?>
<!-- Generator: Adobe Illustrator 16.0.0, SVG Export Plug-In . SVG Version: 6.00 Build 0)  -->
<!DOCTYPE svg PUBLIC "-//W3C//DTD SVG 1.1//EN" "http://www.w3.org/Graphics/SVG/1.1/DTD/svg11.dtd">
<svg version="1.1" xmlns="http://www.w3.org/2000/svg" xmlns:xlink="http://www.w3.org/1999/xlink" x="0px" y="0px" width="512px"
	 height="512px" viewBox="0 0 512 512" enable-background="new 0 0 512 512" xml:space="preserve">
<g id="Layer_2">
	<circle fill-rule="evenodd" clip-rule="evenodd" fill="#31BCAB" cx="256.898" cy="258.968" r="251.338"/>
	<g id="Layer_2_2_">
		<path fill="#1FA390" d="M380.348,175.643L380.348,175.643c10.169,8.105,16.728,20.606,16.667,34.466
			c-0.099,23.344-18.711,42.353-41.946,43.345c-3.124-0.397,70.089,79.378,70.089,79.378l-261.803,0.529l-65.756-0.529
			l183.946,176.276c125.254-11.311,195.688-99.949,218.168-184.755L380.348,175.643z"/>
	</g>
</g>
<g id="Layer_1_copy">
	<g>
		<path fill-rule="evenodd" clip-rule="evenodd" fill="#999999" d="M356.841,255.464c-24.428-0.037-43.855-19.553-43.829-44.026
			c0.027-24.51,19.776-44.142,44.3-44.034c24.085,0.106,43.929,20.174,43.822,44.318
			C401.028,235.916,381.193,255.502,356.841,255.464z"/>
		<path fill-rule="evenodd" clip-rule="evenodd" fill="#999999" d="M429.496,335.42h-62.294
			c-0.234-31.564-18.42-61.104-42.03-79.107c6.797-1.813,16.688-1.563,24.08-1.53C393.174,254.982,429.408,291.438,429.496,335.42z"
			/>
	</g>
	<g>
		<path fill-rule="evenodd" clip-rule="evenodd" fill="#999999" d="M99.334,335.42h58.443c0.22-31.564,17.281-61.104,39.433-79.107
			c-6.377-1.813-15.656-1.563-22.591-1.53C133.411,254.982,99.416,291.438,99.334,335.42z"/>
	</g>
	<g>
		<path fill-rule="evenodd" clip-rule="evenodd" fill="#999999" d="M260.881,238.017c-29.875-0.047-53.634-23.914-53.602-53.846
			c0.032-29.976,24.186-53.985,54.179-53.854c29.455,0.13,53.726,24.673,53.596,54.201
			C314.923,214.107,290.666,238.063,260.881,238.017z"/>
		<path fill-rule="evenodd" clip-rule="evenodd" fill="#999999" d="M360.515,335.953H163.149
			c0.073-54.901,44.292-98.847,99.229-98.616C316.09,237.582,360.404,282.167,360.515,335.953z"/>
		<path fill-rule="evenodd" clip-rule="evenodd" fill="#999999" d="M165.629,255.464c-24.427-0.037-43.855-19.553-43.829-44.026
			c0.027-24.51,19.777-44.142,44.3-44.034c24.085,0.106,43.928,20.174,43.822,44.318
			C209.817,235.916,189.982,255.502,165.629,255.464z"/>
	</g>
</g>
<g id="Layer_1">
	<g>
		<path fill-rule="evenodd" clip-rule="evenodd" fill="#FFFFFF" d="M353.841,253.464c-24.428-0.037-43.855-19.553-43.829-44.026
			c0.027-24.51,19.776-44.142,44.3-44.034c24.085,0.106,43.929,20.174,43.822,44.318
			C398.028,233.916,378.193,253.502,353.841,253.464z"/>
		<path fill-rule="evenodd" clip-rule="evenodd" fill="#FFFFFF" d="M426.496,333.42h-62.294
			c-0.234-31.564-18.42-61.104-42.03-79.107c6.797-1.813,16.688-1.563,24.08-1.53C390.174,252.982,426.408,289.438,426.496,333.42z"
			/>
	</g>
	<g>
		<path fill-rule="evenodd" clip-rule="evenodd" fill="#FFFFFF" d="M96.334,333.42h58.443c0.22-31.564,17.281-61.104,39.433-79.107
			c-6.377-1.813-15.656-1.563-22.591-1.53C130.411,252.982,96.416,289.438,96.334,333.42z"/>
	</g>
	<g>
		<path fill-rule="evenodd" clip-rule="evenodd" fill="#FFFFFF" d="M257.881,236.017c-29.875-0.047-53.634-23.914-53.602-53.846
			c0.032-29.976,24.186-53.985,54.179-53.854c29.455,0.13,53.726,24.673,53.596,54.201
			C311.923,212.107,287.666,236.063,257.881,236.017z"/>
		<path fill-rule="evenodd" clip-rule="evenodd" fill="#FFFFFF" d="M357.515,333.953H160.149
			c0.073-54.901,44.292-98.847,99.229-98.616C313.09,235.582,357.404,280.167,357.515,333.953z"/>
		<path fill-rule="evenodd" clip-rule="evenodd" fill="#FFFFFF" d="M162.629,253.464c-24.427-0.037-43.855-19.553-43.829-44.026
			c0.027-24.51,19.777-44.142,44.3-44.034c24.085,0.106,43.928,20.174,43.822,44.318
			C206.817,233.916,186.982,253.502,162.629,253.464z"/>
	</g>
</g>
</svg>
