<?xml version="1.0" encoding="utf-8"?>
<!-- Generator: Adobe Illustrator 16.0.0, SVG Export Plug-In . SVG Version: 6.00 Build 0)  -->
<!DOCTYPE svg PUBLIC "-//W3C//DTD SVG 1.1//EN" "http://www.w3.org/Graphics/SVG/1.1/DTD/svg11.dtd">
<svg version="1.1" id="Layer_1" xmlns="http://www.w3.org/2000/svg" xmlns:xlink="http://www.w3.org/1999/xlink" x="0px" y="0px"
	 width="100px" height="100px" viewBox="0 0 100 100" enable-background="new 0 0 100 100" xml:space="preserve">
<g>
	<g>
		<path fill="#FFFFFF" d="M94.73,16.391C90.685,12.149,84.098,8.682,75.676,6.36c-3.134-0.864-6.478-1.564-9.969-2.092
			c14.056,6.031,23.306,19.223,24.822,33.814c2.061-6.819,3.607-13.756,4.563-20.575l0.093-0.639L94.73,16.391z M36.494,81.638
			c-3.126-1.022-6.044-2.381-8.73-4.027c1.66,2.25,3.372,4.366,5.129,6.34c5.091,5.727,10.456,10.129,15.937,13.085l0.693,0.374
			l0.69-0.374c5.484-2.956,10.848-7.358,15.942-13.085c1.865-2.099,3.684-4.357,5.443-6.767
			C61.504,83.603,48.72,85.635,36.494,81.638z M23.373,6.36C14.949,8.682,8.361,12.149,4.318,16.391l-0.452,0.477l0.087,0.639
			c0.936,6.677,2.438,13.467,4.435,20.151c0.315-2.726,0.907-5.46,1.792-8.169c3.84-11.748,12.426-20.636,22.939-25.186
			C29.706,4.826,26.437,5.515,23.373,6.36z"/>
	</g>
</g>
<g>
	<g>
		<g>
			<path fill="#FFFFFF" d="M53.608,45.44c0,0,5.751-6.256,3.45-16.671c0,0,0.894,5.603-2.145,12.233c0,0-4.881-4.06-4.052-8.111
				c0.823-4.048,6.342-10.203,4.104-15.765c0,0,13.698,15.712,1.208,24.528c0,0-1.194,3.432-1.959,4.598
				C54.221,46.252,53.37,46.345,53.608,45.44z"/>
			<path fill="#E8E8E8" d="M53.608,45.44c0,0,3.429-1.746,3.447-16.009c0,0,0.148-6.743-2.085-12.308
				c0,0,13.693,15.708,1.203,24.527c0,0-1.194,3.431-1.959,4.598C54.221,46.252,53.37,46.345,53.608,45.44z"/>
			<path fill="#FFFFFF" d="M49.631,37.866c0,0-8.297-1.851-16.164,5.348c0,0,4.408-3.576,11.666-4.257c0,0-1.079,6.257-5,7.565
				c-3.915,1.309-12.008-0.391-15.707,4.33c0,0,6.758-19.715,20.639-13.31c0,0,3.568-0.681,4.961-0.604
				C50.028,36.936,50.533,37.619,49.631,37.866z"/>
			<path fill="#E8E8E8" d="M49.631,37.866c0,0-3.225-2.095-15.588,5.022c0,0-5.916,3.238-9.614,7.96c0,0,6.757-19.711,20.638-13.307
				c0,0,3.568-0.68,4.961-0.605C50.028,36.936,50.533,37.619,49.631,37.866z"/>
			<path fill="#FFFFFF" d="M45.06,45.101c0,0,2.546,8.11,12.715,11.326c0,0-5.303-2.028-9.521-7.976c0,0,5.954-2.196,9.05,0.545
				C60.4,51.735,62.97,59.592,68.91,60.436c0,0-20.456,4.006-21.849-11.222c0,0-2.374-2.753-3.005-3.995
				C44.052,45.219,44.395,44.442,45.06,45.101z"/>
			<path fill="#E8E8E8" d="M45.06,45.101c0,0-0.203,3.844,12.139,10.988c0,0,5.766,3.503,11.703,4.347
				c0,0-20.453,4.006-21.846-11.222c0,0-2.371-2.751-3.003-3.995C44.052,45.219,44.395,44.442,45.06,45.101z"/>
		</g>
	</g>
	<path fill="#FFFFFF" d="M65.766,73.999c17.22-9.022,23.892-30.284,14.866-47.527C71.61,9.247,50.342,2.584,33.114,11.604
		c-17.239,9.008-23.902,30.29-14.879,47.511C27.244,76.358,48.522,83.022,65.766,73.999z M19.516,58.454
		c-8.653-16.529-2.263-36.933,14.266-45.572c16.531-8.649,36.918-2.268,45.572,14.25c8.656,16.549,2.27,36.938-14.249,45.587
		C48.554,81.37,28.154,74.985,19.516,58.454z"/>
	<g>
		<path fill="#E8E8E8" d="M49.469,9.089c-18.622,0-33.712,15.09-33.712,33.707c0,18.615,15.09,33.712,33.712,33.712
			c18.616,0,33.707-15.097,33.707-33.712C83.176,24.18,68.085,9.089,49.469,9.089z M49.469,71.325
			c-15.759,0-28.529-12.775-28.529-28.529c0-15.754,12.77-28.524,28.529-28.524c15.749,0,28.524,12.77,28.524,28.524
			C77.993,58.55,65.218,71.325,49.469,71.325z"/>
		<path fill="#FFFFFF" d="M11.364,30.133c-6.873,21.031,4.487,43.703,25.522,50.578c21.034,6.874,43.761-4.646,50.637-25.681
			c6.872-21.04-4.656-43.76-25.687-50.635C40.8-2.479,18.24,9.099,11.364,30.133z M78.528,52.089
			c-5.271,16.11-22.532,24.729-38.645,19.471c-15.948-5.221-24.79-22.372-19.524-38.483c5.27-16.113,22.532-24.734,38.486-19.519
			C74.953,18.823,83.794,35.98,78.528,52.089z"/>
	</g>
	<circle fill="#FFFFFF" cx="49.468" cy="42.798" r="9.65"/>
	<path fill="#FFFFFF" d="M49.468,31.888c-6.027,0-10.912,4.884-10.912,10.909c0,6.026,4.884,10.911,10.912,10.911
		c6.025,0,10.909-4.885,10.909-10.911C60.377,36.772,55.493,31.888,49.468,31.888z M49.468,52.03c-5.101,0-9.234-4.134-9.234-9.233
		c0-5.098,4.133-9.231,9.234-9.231c5.097,0,9.231,4.133,9.231,9.231C58.699,47.896,54.564,52.03,49.468,52.03z"/>
</g>
</svg>
