<?xml version="1.0" encoding="utf-8"?>
<!-- Generator: Adobe Illustrator 16.0.0, SVG Export Plug-In . SVG Version: 6.00 Build 0)  -->
<!DOCTYPE svg PUBLIC "-//W3C//DTD SVG 1.1//EN" "http://www.w3.org/Graphics/SVG/1.1/DTD/svg11.dtd">
<svg version="1.1" xmlns="http://www.w3.org/2000/svg" xmlns:xlink="http://www.w3.org/1999/xlink" x="0px" y="0px" width="25px"
	 height="25px" viewBox="0 0 25 25" enable-background="new 0 0 25 25" xml:space="preserve">
<g id="Layer_2">
</g>
<g id="Layer_1">
	<g>
		<path fill="#F4D62B" d="M0.09,5.22v17.76c0,0.779,0.63,1.409,1.41,1.409h22c0.78,0,1.41-0.63,1.41-1.409V5.22H0.09z M12.07,17.2
			c-0.57,0.54-1.29,0.81-2.18,0.81c-0.83,0-1.51-0.26-2.04-0.76c-0.01-0.01-0.02-0.02-0.02-0.02C7.74,17.15,7.67,17.06,7.6,16.96
			c-0.18-0.21-0.31-0.45-0.4-0.71c-0.02-0.05-0.04-0.11-0.06-0.17c-0.01-0.03-0.02-0.061-0.03-0.09c-0.03-0.11-0.06-0.221-0.07-0.34
			C7.03,15.64,7.03,15.64,7.03,15.63c-0.02-0.14-0.04-0.29-0.05-0.45h1.63c0.07,0.45,0.22,0.78,0.46,1
			c0.24,0.21,0.55,0.32,0.91,0.32c0.39,0,0.7-0.12,0.95-0.37c0.26-0.24,0.38-0.54,0.38-0.899c0-0.391-0.17-0.721-0.51-0.99
			c-0.34-0.271-0.83-0.41-1.47-0.42v-1.4c0.4-0.03,0.69-0.09,0.88-0.19c0.2-0.09,0.35-0.21,0.46-0.37c0.1-0.16,0.16-0.33,0.16-0.51
			c0-0.24-0.09-0.43-0.25-0.59c-0.08-0.07-0.17-0.13-0.27-0.17c-0.11-0.04-0.24-0.06-0.37-0.06c-0.24,0-0.45,0.07-0.64,0.22
			c-0.19,0.14-0.33,0.32-0.4,0.55H7.33c0.08-0.64,0.31-1.15,0.68-1.54c0.53-0.54,1.19-0.8,1.98-0.8c0.12,0,0.24,0.01,0.36,0.02
			c0.11,0.01,0.22,0.03,0.32,0.06c0.08,0.02,0.17,0.04,0.25,0.07c0.12,0.04,0.24,0.1,0.35,0.16l0.03,0.02
			c0.17,0.09,0.33,0.21,0.47,0.34c0.48,0.45,0.71,0.98,0.71,1.6c0,0.38-0.1,0.73-0.31,1.05c-0.21,0.31-0.51,0.57-0.91,0.76
			c0.52,0.16,0.93,0.43,1.23,0.82c0.29,0.39,0.44,0.85,0.44,1.38C12.93,16.01,12.64,16.67,12.07,17.2z M17.78,17.79h-1.63v-7.08
			h-1.78l0.95-1.54h2.46V17.79z"/>
		<path fill="#F4D62B" d="M0.09,5.22v17.76c0,0.779,0.63,1.409,1.41,1.409h22c0.78,0,1.41-0.63,1.41-1.409V5.22H0.09z M12.07,17.2
			c-0.57,0.54-1.29,0.81-2.18,0.81c-0.83,0-1.51-0.26-2.04-0.76c-0.01-0.01-0.02-0.02-0.02-0.02C7.74,17.15,7.66,17.06,7.6,16.96
			c-0.18-0.21-0.31-0.45-0.4-0.71c-0.03-0.05-0.05-0.11-0.06-0.17c-0.01-0.03-0.02-0.061-0.03-0.09c-0.03-0.11-0.06-0.221-0.07-0.34
			C7.03,15.64,7.03,15.64,7.03,15.63c-0.02-0.14-0.04-0.29-0.05-0.45h1.63c0.07,0.45,0.22,0.78,0.46,1
			c0.24,0.21,0.55,0.32,0.91,0.32c0.39,0,0.7-0.12,0.95-0.37c0.26-0.24,0.38-0.54,0.38-0.899c0-0.391-0.17-0.721-0.51-0.99
			c-0.34-0.271-0.83-0.41-1.47-0.42v-1.4c0.4-0.03,0.69-0.09,0.88-0.19c0.2-0.09,0.35-0.21,0.46-0.37c0.1-0.16,0.16-0.33,0.16-0.51
			c0-0.24-0.09-0.43-0.25-0.59c-0.08-0.07-0.17-0.13-0.27-0.17c-0.11-0.04-0.24-0.06-0.37-0.06c-0.24,0-0.45,0.07-0.64,0.22
			c-0.19,0.14-0.33,0.32-0.4,0.55H7.33c0.08-0.64,0.31-1.15,0.68-1.54c0.53-0.54,1.19-0.8,1.98-0.8c0.12,0,0.24,0.01,0.36,0.02
			c0.11,0.01,0.22,0.03,0.32,0.06c0.09,0.02,0.17,0.04,0.25,0.07c0.12,0.04,0.24,0.1,0.35,0.16l0.03,0.02
			c0.17,0.09,0.33,0.21,0.47,0.34c0.48,0.45,0.71,0.98,0.71,1.6c0,0.38-0.1,0.73-0.31,1.05c-0.21,0.31-0.51,0.57-0.91,0.76
			c0.52,0.16,0.93,0.43,1.23,0.82c0.29,0.39,0.44,0.85,0.44,1.38C12.93,16.01,12.64,16.67,12.07,17.2z M17.78,17.79h-1.63v-7.08
			h-1.78l0.95-1.54h2.46V17.79z"/>
		<linearGradient id="SVGID_1_" gradientUnits="userSpaceOnUse" x1="23.8535" y1="26.1289" x2="9.0195" y2="10.9619">
			<stop  offset="0" style="stop-color:#F4D62B"/>
			<stop  offset="1" style="stop-color:#D8B828"/>
		</linearGradient>
		<path fill="url(#SVGID_1_)" d="M24.91,17.792v5.188c0,0.779-0.63,1.409-1.41,1.409H11.64c-0.85-1.529-3.98-7.159-3.81-7.159
			c0,0,0.01,0.01,0.02,0.02c0.53,0.5,1.21,0.76,2.04,0.76c0.89,0,1.61-0.27,2.18-0.81c0.57-0.53,0.86-1.19,0.86-1.96
			c0-0.53-0.15-0.99-0.44-1.38c-0.3-0.391-0.71-0.66-1.23-0.82c0.4-0.19,0.7-0.45,0.91-0.76c0.21-0.32,0.31-0.67,0.31-1.05
			c0-0.62-0.23-1.15-0.71-1.6c-0.14-0.13-0.3-0.25-0.47-0.34l4.851,3.251V10.71v7.08h1.63V9.17L24.91,17.792z"/>
	</g>
	<linearGradient id="SVGID_2_" gradientUnits="userSpaceOnUse" x1="12.4849" y1="-0.1455" x2="12.5059" y2="4.8125">
		<stop  offset="0" style="stop-color:#3D3D3D"/>
		<stop  offset="0.0511" style="stop-color:#3B3B3B"/>
		<stop  offset="0.526" style="stop-color:#2F2F2F"/>
		<stop  offset="0.9946" style="stop-color:#2B2B2B"/>
	</linearGradient>
	<path fill="url(#SVGID_2_)" d="M24.91,2.136v2.781H0.09V2.136c0-0.844,0.63-1.526,1.41-1.526h2.08v2.078
		c0,0.357,0.27,0.649,0.6,0.649h1.14c0.33,0,0.6-0.292,0.6-0.649V0.61h13.16v2.078c0,0.357,0.27,0.649,0.6,0.649h1.141
		c0.33,0,0.6-0.292,0.6-0.649V0.61h2.08C24.281,0.61,24.91,1.292,24.91,2.136z"/>
	<g>
		<path fill="#F4D62B" d="M5.813,0.71c0-0.323-0.245-0.584-0.546-0.584H4.234c-0.302,0-0.546,0.262-0.546,0.584v1.874
			c0,0.323,0.245,0.584,0.546,0.584h1.033c0.302,0,0.546-0.262,0.546-0.584V0.71z"/>
		<path fill="#F4D62B" d="M21.309,0.715c0-0.32-0.243-0.581-0.545-0.581h-1.027c-0.3,0-0.543,0.26-0.543,0.581V2.58
			c0,0.32,0.243,0.581,0.543,0.581h1.027c0.302,0,0.545-0.26,0.545-0.581V0.715z"/>
	</g>
</g>
</svg>
