<?xml version="1.0" encoding="utf-8"?>
<!-- Generator: Adobe Illustrator 16.0.0, SVG Export Plug-In . SVG Version: 6.00 Build 0)  -->
<!DOCTYPE svg PUBLIC "-//W3C//DTD SVG 1.1//EN" "http://www.w3.org/Graphics/SVG/1.1/DTD/svg11.dtd">
<svg version="1.1" id="Layer_1" xmlns="http://www.w3.org/2000/svg" xmlns:xlink="http://www.w3.org/1999/xlink" x="0px" y="0px"
	 width="512px" height="512px" viewBox="0 0 512 512" enable-background="new 0 0 512 512" xml:space="preserve">
<g id="Layer_3_1_">
</g>
<g id="Layer_1_2_">
	<g id="Layer_1_1_">
		<g id="Layer_2">
			<path fill="#40526B" d="M509,255.96c0,16.229-1.53,32.09-4.47,47.46c-1.11,5.891-2.433,11.7-3.95,17.439
				c-18.17,68.541-64.45,125.661-125.76,158.229c-15.15,8.05-31.21,14.61-47.99,19.46c-22.33,6.472-45.939,9.94-70.35,9.94
				C117.01,508.49,3.95,395.43,3.95,255.96C3.95,116.5,117.01,3.44,256.48,3.44C395.94,3.44,509,116.5,509,255.96z"/>
		</g>
		<path fill="#334351" d="M509,255.96c0.333,31.04-6.9,59.16-8.42,64.899c-18.17,68.541-64.45,125.661-125.76,158.229L67.46,285.16
			l22.04-24.327l15-13.667l39.333-17.333l142.657-39.895L418.52,210.4l63.563,30.44L509,255.96z"/>
		<g id="Layer_2_3_" display="none">
			<g display="inline">
				<path fill="#00C5B0" d="M196.287,282.434c11.139-9.305,22.54-18.189,34.432-26.37c35.877-24.67,118.864-45.339,160.775-56.044
					c21.945-4.693,34.753-5.4,42.176-5.999c-71.677,13.604-125.837,31.479-237.838,100.052c2.789,3.616,14.965,15.393,18.262,17.745
					c14.008,10,29.389,15.146,45.494,17.145c28.967,3.592,55.696-1.177,78.922-20.068c13.823-11.246,25.571-24.662,36.528-39.027
					c16.412-21.52,33.412-42.342,56.17-56.271c10.853-6.644,21.914-12.88,34.335-15.888c-0.074-0.74-38.823-22.143-56.969-28.719
					c-49.089-17.793-97.094-18.146-143.092,3.383c-30.958,14.488-56.542,36.145-70.708,70.914
					c-4.703,11.546-6.898,23.729-3.93,36.804C192.009,285.203,192.667,285.455,196.287,282.434z"/>
			</g>
		</g>
		<g id="Layer_3">
			<g>
				<path fill="#B0CD37" d="M453.153,232.462c-2.104,0.546-3.982,1.686-5.833,2.897c-3.877,2.544-6.792,6.356-9.614,10.295
					c-1.884,2.632-3.898,5.088-6.256,7.144c-3.97,3.456-8.489,4.317-13.368,3.643c-2.715-0.373-5.301-1.325-7.638-3.167
					c-0.255-0.197-1.038-1.239-1.839-2.398c3.645-2.92,20.291-15.832,32.615-18.38c0,0-9.329-1.846-33.959,16.306
					c-0.355-0.609-0.62-1.112-0.665-1.361c-0.474-2.4-0.071-4.635,0.75-6.75c2.474-6.372,6.846-10.332,12.104-12.976
					c7.813-3.927,15.913-3.837,24.155-0.55c3.048,1.216,5.986,2.764,8.84,4.575c0.227,0.144,0.448,0.307,0.717,0.316
					C453.438,232.215,453.143,232.327,453.153,232.462z"/>
			</g>
			<g display="none">
				<path display="inline" fill="#B0CD37" d="M336.935,263.76c-0.605,0.03-1.183,0.225-1.751,0.439
					c-1.188,0.451-2.172,1.275-3.133,2.139c-0.642,0.576-1.312,1.102-2.059,1.506c-1.258,0.68-2.555,0.664-3.879,0.238
					c-0.737-0.236-1.413-0.614-1.98-1.207c-0.062-0.063-0.231-0.371-0.404-0.71c1.146-0.56,6.353-3.003,9.893-3.017
					c0,0-2.511-0.957-10.169,2.416c-0.073-0.176-0.122-0.317-0.125-0.385c-0.023-0.641,0.188-1.19,0.512-1.689
					c0.974-1.504,2.365-2.292,3.944-2.697c2.348-0.6,4.596-0.156,6.736,1.113c0.793,0.47,1.539,1.02,2.255,1.631
					c0.056,0.05,0.107,0.104,0.184,0.119C337.024,263.711,336.938,263.725,336.935,263.76z"/>
			</g>
			<g>
				<path fill="#B0CD37" d="M451.152,280.421c-1.729-0.086-3.333-0.759-4.921-1.501c-3.332-1.57-6.024-4.482-8.652-7.533
					c-1.756-2.037-3.595-3.89-5.674-5.313c-3.486-2.377-7.173-2.274-10.987-0.701c-2.12,0.876-4.085,2.255-5.768,4.398
					c-0.182,0.229-0.702,1.34-1.228,2.559c3.183,1.956,17.683,10.494,27.732,10.404c0,0-7.245,3.521-28.601-8.248
					c-0.228,0.63-0.387,1.141-0.398,1.381c-0.142,2.287,0.396,4.253,1.256,6.025c2.588,5.347,6.449,8.11,10.891,9.496
					c6.598,2.055,13.032,0.385,19.271-4.248c2.311-1.707,4.495-3.703,6.588-5.922c0.167-0.177,0.331-0.369,0.539-0.434
					C451.403,280.593,451.157,280.544,451.152,280.421z"/>
			</g>
			<g>
				<path fill="#B0CD37" d="M465.473,256.788c-1.328,0.38-2.716,0.286-4.104,0.135c-2.924-0.328-5.71-1.836-8.483-3.463
					c-1.853-1.087-3.721-2.013-5.657-2.55c-3.246-0.898-6.009,0.13-8.483,2.303c-1.377,1.21-2.506,2.758-3.229,4.813
					c-0.073,0.222-0.185,1.193-0.266,2.25c2.908,0.656,16.07,3.371,23.646,0.711c0,0-4.565,4.531-23.741,1.146
					c-0.011,0.533,0.003,0.96,0.053,1.146c0.485,1.767,1.396,3.113,2.504,4.229c3.335,3.373,6.967,4.47,10.681,4.369
					c5.519-0.147,9.949-3.071,13.472-8.183c1.304-1.887,2.439-3.957,3.448-6.174c0.082-0.177,0.154-0.365,0.299-0.466
					C465.706,256.854,465.508,256.879,465.473,256.788z"/>
			</g>
			<g>
				<path fill="#B0CD37" d="M463.906,233.468c-0.393,0.772-0.503,1.639-0.581,2.514c-0.158,1.841,0.413,3.738,1.057,5.64
					c0.431,1.272,0.76,2.534,0.851,3.791c0.146,2.108-0.813,3.688-2.424,4.956c-0.896,0.704-1.967,1.215-3.293,1.414
					c-0.143,0.021-0.741-0.027-1.39-0.104c-0.042-1.87-0.077-10.306,2.448-14.656c0,0-3.288,2.274-3.579,14.496
					c-0.322-0.058-0.577-0.117-0.687-0.169c-1.005-0.509-1.705-1.23-2.243-2.047c-1.631-2.456-1.85-4.825-1.335-7.102
					c0.76-3.382,3.063-5.766,6.57-7.327c1.296-0.58,2.686-1.035,4.145-1.392c0.113-0.029,0.237-0.052,0.314-0.128
					C463.896,233.316,463.855,233.435,463.906,233.468z"/>
			</g>
			<g>
				<path fill="#B0CD37" d="M457.928,274.178c0.745,0.439,1.604,0.604,2.474,0.737c1.827,0.274,3.756-0.179,5.693-0.7
					c1.297-0.35,2.576-0.6,3.837-0.609c2.113-0.014,3.629,1.039,4.794,2.729c0.646,0.938,1.092,2.04,1.205,3.376
					c0.015,0.145-0.072,0.738-0.189,1.38c-1.868-0.073-10.289-0.567-14.476-3.36c0,0,2.064,3.424,14.243,4.479
					c-0.078,0.318-0.15,0.57-0.212,0.674c-0.57,0.971-1.334,1.625-2.184,2.111c-2.556,1.473-4.933,1.542-7.172,0.888
					c-3.327-0.97-5.563-3.417-6.9-7.019c-0.497-1.33-0.864-2.743-1.13-4.223c-0.021-0.117-0.037-0.242-0.107-0.322
					C457.774,274.18,457.891,274.227,457.928,274.178z"/>
			</g>
			<g>
				<path fill="#B0CD37" d="M483.751,255.156c-0.431,0.086-0.812,0.313-1.186,0.555c-0.783,0.512-1.361,1.334-1.921,2.188
					c-0.373,0.568-0.771,1.097-1.248,1.524c-0.795,0.72-1.725,0.833-2.734,0.586c-0.562-0.137-1.1-0.403-1.596-0.872
					c-0.054-0.051-0.222-0.305-0.395-0.587c0.734-0.603,4.088-3.257,6.615-3.61c0,0-1.938-0.6-6.904,3.11
					c-0.078-0.146-0.133-0.269-0.146-0.325c-0.11-0.562-0.042-1.066,0.113-1.537c0.472-1.419,1.349-2.248,2.415-2.757
					c1.589-0.756,3.262-0.583,4.982,0.33c0.636,0.335,1.253,0.746,1.852,1.216c0.048,0.037,0.097,0.079,0.149,0.086
					C483.808,255.104,483.747,255.126,483.751,255.156z"/>
			</g>
			<g>
				<path fill="#B0CD37" d="M469.605,272.088c-0.108-0.426-0.355-0.793-0.618-1.152c-0.558-0.754-1.408-1.285-2.291-1.795
					c-0.589-0.342-1.14-0.711-1.593-1.162c-0.763-0.754-0.928-1.676-0.736-2.696c0.105-0.568,0.344-1.122,0.783-1.644
					c0.047-0.055,0.292-0.236,0.563-0.426c0.644,0.699,3.479,3.902,3.973,6.405c0,0,0.492-1.968-3.486-6.722
					c0.142-0.086,0.26-0.148,0.315-0.166c0.555-0.143,1.063-0.104,1.54,0.028c1.443,0.392,2.319,1.222,2.889,2.261
					c0.843,1.543,0.764,3.223-0.055,4.989c-0.299,0.655-0.675,1.294-1.109,1.918c-0.034,0.052-0.073,0.101-0.078,0.154
					C469.662,272.143,469.637,272.083,469.605,272.088z"/>
			</g>
			<g>
				<path fill="#B0CD37" d="M482.101,241.544c-0.589,0.152-1.095,0.496-1.592,0.86c-1.043,0.77-1.773,1.95-2.479,3.172
					c-0.472,0.816-0.979,1.575-1.603,2.204c-1.041,1.056-2.313,1.286-3.729,1.027c-0.786-0.146-1.553-0.472-2.271-1.078
					c-0.077-0.064-0.33-0.404-0.591-0.779c0.966-0.89,5.387-4.822,8.847-5.511c0,0-2.722-0.675-9.284,4.842
					c-0.119-0.196-0.206-0.359-0.229-0.439c-0.196-0.765-0.144-1.468,0.037-2.13c0.536-1.998,1.682-3.21,3.116-3.998
					c2.132-1.169,4.454-1.064,6.902,0.06c0.906,0.412,1.789,0.931,2.653,1.533c0.069,0.047,0.141,0.101,0.214,0.106
					C482.175,241.467,482.094,241.502,482.101,241.544z"/>
			</g>
		</g>
		<g id="Layer_3_copy">
		</g>
		<g id="Layer_1_3_">
			<g id="Layer_1_4_">
				<g>
					<path fill="#FFFFFF" d="M425.5,262.5c2.36,0,4.58,0.57,6.54,1.59c-0.08-2.34-0.38-4.75-0.84-7.199
						c-2.83,1.959-6.26,3.109-9.95,3.109c-4.83,0-9.21-1.96-12.38-5.12c-3.16-3.17-5.12-7.54-5.12-12.38s1.96-9.21,5.12-12.38
						c3.17-3.16,7.55-5.12,12.38-5.12h0.12c-1.603-5.21-2.76-10.16-2.853-14.6c-29.35-4.92-60.47-20.98-97.287-23.02
						c-52.28-2.9-86.203,15.89-124.762,27.47c-33.83,10.15-89.31,7.56-109.93,26.01c-7.6,6.79-25.35,30.31-18.58,43.8
						c5.28,10.49,26.91,6.99,37.89,7.449c-11.25-27.42,5.65-51.602,28.96-54.229c21.94-2.47,44.46,13.65,42.33,40.84
						c-0.42,5.421-0.42,5.421-1.63,14.11c49.64-0.84,107.9-0.271,158.33-0.74c-16.52-28.14,6.24-65,39.37-60.9
						c25.62,3.17,43.71,36.48,27.49,61.64c7.18,0.87,13.229-0.62,18.06-3.521c-4.47-2.397-7.51-7.13-7.51-12.56
						C411.25,268.88,417.63,262.5,425.5,262.5z M198.5,220c78.75-32.75,111.88-25.5,111.88-25.5l0.68,25.56L198.5,220z"/>
				</g>
			</g>
			<path fill="#CECECE" d="M139.55,243.01c-17.82,0-32.26,14.44-32.26,32.28c0,17.819,14.44,32.26,32.26,32.26
				c17.83,0,32.27-14.438,32.27-32.26C171.82,257.45,157.38,243.01,139.55,243.01z M139.55,292.75c-9.65,0-17.47-7.82-17.47-17.46
				c0-9.66,7.82-17.49,17.47-17.49c9.66,0,17.48,7.83,17.48,17.49C157.03,284.93,149.21,292.75,139.55,292.75z"/>
			<path fill="#CECECE" d="M368.09,237.15c-18.83,0-34.1,15.25-34.1,34.1c0,18.83,15.27,34.1,34.1,34.1s34.103-15.27,34.103-34.1
				C402.19,252.4,386.94,237.15,368.09,237.15z M368.09,289.71c-10.2,0-18.47-8.26-18.47-18.46s8.27-18.45,18.47-18.45
				s18.47,8.25,18.47,18.45S378.29,289.71,368.09,289.71z"/>
		</g>
	</g>
</g>
</svg>
