<?xml version="1.0" encoding="utf-8"?>
<!-- Generator: Adobe Illustrator 16.0.0, SVG Export Plug-In . SVG Version: 6.00 Build 0)  -->
<!DOCTYPE svg PUBLIC "-//W3C//DTD SVG 1.1//EN" "http://www.w3.org/Graphics/SVG/1.1/DTD/svg11.dtd">
<svg version="1.1" id="Layer_1" xmlns="http://www.w3.org/2000/svg" xmlns:xlink="http://www.w3.org/1999/xlink" x="0px" y="0px"
	 width="1137px" height="1137px" viewBox="0 0 1137 1137" enable-background="new 0 0 1137 1137" xml:space="preserve">
<g id="Layer_1_1_">
	<path fill="#EB7B5D" d="M1115.56,568.5c0,9.5-0.239,18.95-0.72,28.33c-0.149,3-0.33,6-0.54,8.99
		c-3.62,53.92-15.069,105.699-33.21,154.22c-2.28,6.12-4.68,12.18-7.17,18.19c-0.07,0.159-0.12,0.279-0.16,0.38
		c-14.77,35.46-33.17,69.04-54.72,100.27c-6.58,9.53-13.46,18.84-20.61,27.92c-1.399,1.771-2.8,3.54-4.229,5.29
		c-4.71,5.851-9.55,11.59-14.51,17.24c-0.9,1.02-1.801,2.04-2.71,3.05c-0.66,0.75-1.33,1.51-2.021,2.26
		c-1.02,1.13-2.04,2.261-3.09,3.38c-0.561,0.641-1.15,1.28-1.76,1.931c-0.83,0.91-1.67,1.81-2.53,2.71
		c-0.84,0.91-1.7,1.82-2.58,2.729c-0.77,0.83-1.56,1.65-2.37,2.471c-0.88,0.939-1.78,1.87-2.7,2.8c-0.819,0.85-1.649,1.7-2.5,2.54
		c-0.76,0.78-1.54,1.56-2.319,2.33c-0.94,0.95-1.88,1.88-2.82,2.79c-0.84,0.85-1.68,1.68-2.53,2.479
		c-0.859,0.851-1.72,1.69-2.59,2.5c-0.85,0.84-1.71,1.66-2.57,2.45c-0.88,0.85-1.76,1.68-2.649,2.5c-0.94,0.89-1.88,1.76-2.82,2.61
		c-0.76,0.72-1.53,1.42-2.3,2.12c-1.12,1.029-2.24,2.039-3.37,3.029c-0.729,0.67-1.46,1.32-2.19,1.96
		c-1.72,1.54-3.46,3.05-5.199,4.561c-1.82,1.58-3.65,3.14-5.49,4.68c-1.9,1.61-3.82,3.2-5.75,4.78c-1.47,1.21-2.95,2.399-4.43,3.6
		c-3.261,2.61-6.551,5.18-9.87,7.71c-1.45,1.12-2.91,2.22-4.38,3.32c-81.57,61.11-180.771,99.96-288.601,107.56
		c-12.899,0.92-25.92,1.38-39.05,1.38c-5.81,0-11.59-0.09-17.36-0.27c-29.98-0.93-59.36-4.28-87.94-9.86
		C211.46,1056.34,21.44,834.61,21.44,568.5c0-122.89,40.52-236.32,108.94-327.65c1.59-2.13,3.2-4.25,4.83-6.35
		c3.2-4.16,6.47-8.27,9.8-12.33c23.57-28.79,50.02-55.13,78.91-78.58c2.08-1.7,4.17-3.37,6.27-5.03c9.08-7.16,18.4-14.03,27.93-20.6
		C346.3,57.09,453.24,21.44,568.5,21.44C870.63,21.44,1115.56,266.37,1115.56,568.5z"/>
	<linearGradient id="SVGID_1_" gradientUnits="userSpaceOnUse" x1="1010.8477" y1="1004.4697" x2="386.8477" y2="434.4698">
		<stop  offset="0" style="stop-color:#EB7B5D"/>
		<stop  offset="0.0012" style="stop-color:#EB7B5D"/>
		<stop  offset="0.1439" style="stop-color:#DB694E"/>
		<stop  offset="0.3131" style="stop-color:#CF5C44"/>
		<stop  offset="0.5345" style="stop-color:#C9543E"/>
		<stop  offset="1" style="stop-color:#C7523C"/>
	</linearGradient>
	<path fill="url(#SVGID_1_)" d="M1114.3,605.82c-3.62,53.92-15.069,105.699-33.21,154.22c-2.28,6.12-4.68,12.18-7.17,18.19
		c-0.07,0.159-0.12,0.279-0.16,0.38c-14.77,35.46-33.17,69.04-54.72,100.27c-6.58,9.53-13.46,18.84-20.61,27.92
		c-1.399,1.771-2.8,3.54-4.229,5.29c-4.71,5.851-9.55,11.59-14.51,17.24c-0.9,1.02-1.801,2.04-2.71,3.05
		c-0.66,0.75-1.33,1.51-2.021,2.26c-1.01,1.13-2.03,2.261-3.09,3.38c-0.561,0.641-1.15,1.28-1.76,1.931
		c-0.83,0.91-1.67,1.81-2.53,2.71c-0.84,0.91-1.7,1.82-2.58,2.729c-0.77,0.83-1.56,1.65-2.37,2.471c-0.88,0.939-1.78,1.87-2.7,2.8
		c-0.819,0.84-1.649,1.689-2.5,2.54c-0.76,0.78-1.529,1.56-2.319,2.33c-0.94,0.95-1.88,1.88-2.82,2.79
		c-0.84,0.85-1.68,1.68-2.53,2.479c-0.859,0.851-1.72,1.69-2.59,2.5c-0.85,0.84-1.71,1.66-2.57,2.45c-0.88,0.85-1.76,1.68-2.649,2.5
		c-0.94,0.89-1.88,1.76-2.82,2.61c-0.76,0.72-1.53,1.42-2.3,2.12c-1.12,1.029-2.24,2.039-3.37,3.029
		c-0.729,0.67-1.46,1.32-2.19,1.96c-1.72,1.54-3.46,3.05-5.199,4.561c-1.82,1.58-3.65,3.14-5.49,4.68c-1.9,1.61-3.82,3.2-5.75,4.78
		c-1.47,1.21-2.95,2.399-4.43,3.6c-3.261,2.61-6.551,5.18-9.87,7.71c-1.45,1.12-2.91,2.22-4.38,3.32
		c-81.57,61.11-180.771,99.96-288.601,107.56l-262.4-174.66l98.65-149.13l13.77-20.81l13.64-20.63L498.14,617l40.05-196.24
		L567.4,277.6l0.78-3.81l258.16,19l0.021,0.03L1114.3,605.82z"/>
	<g>
		<path fill="#FFFFFF" d="M568.61,130.6v0.1c-1.811-0.04-3.61-0.06-5.42-0.07C565,130.61,566.8,130.6,568.61,130.6z"/>
		<path fill="#FFFFFF" d="M563.641,958.88c1.662-0.011,3.315-0.021,4.969-0.041v0.071
			C566.956,958.91,565.293,958.899,563.641,958.88z"/>
		<path fill="#FFFFFF" d="M557.765,958.839c1.652,0.021,3.306,0.03,4.958,0.041c-1.652,0.021-3.305,0.03-4.958,0.03V958.839z"/>
		<path fill="#FFFFFF" d="M563.19,130.63c-1.811,0.01-3.62,0.03-5.421,0.07v-0.1C559.57,130.6,561.38,130.61,563.19,130.63z"/>
	</g>
</g>
<g>
	<g>
		<path fill="#272627" d="M839.847,319.142c-108.749-228.699-271.35-146.598-271.35-146.598S405.896,90.442,297.153,319.142
			c-108.755,228.705-73.574,388.63-57.578,478.188c15.997,89.558,105.555,161.531,195.106,175.922
			c18.346,2.95,34.675,4.641,49.219,5.544c6.721-17.45,28.049-78.133,37.114-167.556c-82.338-29.695-143.206-134.808-143.206-259.93
			c0-5.94,0.186-11.809,0.461-17.654c14.057-16.591,34.681-46.855,38.105-84.814c9.224,29.413,0,49.391,0,49.391
			s57.521-34.016,96.139-111.29c11.868,46.094,106.266,71.122,106.266,71.122s-10.979-23.703-7.477-47.413
			c22.397,96.58,93.52,101.419,93.52,101.419s-10.978-14.05-9.211-44.788c15.363,50.927,53.552,57.514,53.552,57.514
			s-21.955-46.978-8.776-83.854c2.728,5.934,5.249,12.533,7.573,19.529c7.259,28.377,11.228,58.941,11.228,90.838
			c0,125.129-60.861,230.235-143.206,259.93c9.071,89.423,30.394,150.105,37.12,167.556c14.55-0.903,30.88-2.594,49.219-5.544
			c89.552-14.391,179.114-86.364,195.104-175.922C913.422,707.771,948.602,547.847,839.847,319.142z"/>
		<path fill="#4E3319" d="M631.586,703.125c0,0-28.248,2.599-63.089,2.599c-34.841,0-63.083-2.599-63.083-2.599
			s28.242,9.863,63.083,9.863C603.338,712.988,631.586,703.125,631.586,703.125z"/>
		<path fill="#4E3319" d="M568.5,681.65c-19.34-22.12-48.58,13.58-78.97,13.109c27.62,22.101,28.77,52.28,78.97,52.28
			s51.35-30.18,78.98-52.28C617.08,695.23,587.84,659.53,568.5,681.65z M568.5,712.99c-34.84,0-63.09-9.87-63.09-9.87
			s28.25,2.6,63.09,2.6s63.09-2.6,63.09-2.6S603.34,712.99,568.5,712.99z"/>
	</g>
	<path fill="#FDDBAF" d="M772.705,512.955c-6.829-207.006-128.559-235.382-209.688-235.382
		c-196.079-1.748-219.5,264.116-196.246,363.922c13.692,65.752,36.66,109.023,48.931,124.682
		c16.771,21.378,111.815,83.79,156.048,83.79c44.23,0,124.456-62.412,141.221-83.79
		C725.248,750.519,774.677,668.412,772.705,512.955z"/>
	<g>
		<path fill="#272627" d="M839.847,319.142c-108.749-228.699-271.35-146.598-271.35-146.598S405.896,90.442,297.153,319.142
			c-41.479,87.235-62.007,164.451-70.662,231.585l132.752,13.302c-1.376-68.184,41.332-100.562,57.13-115.188
			c9.224,29.413,0,49.391,0,49.391s57.521-34.016,96.139-111.29c11.868,46.094,106.266,71.122,106.266,71.122
			s-10.979-23.703-7.477-47.413c22.397,96.58,93.52,101.419,93.52,101.419s-10.978-14.05-9.211-44.788
			c15.363,50.927,53.552,57.514,53.552,57.514s-21.955-46.978-8.776-83.854c2.728,5.934,5.249,12.533,7.573,19.529
			c7.048,27.551,25.009,67.853,25.233,98.731l138.819,4.122C904.383,493.316,883.942,411.888,839.847,319.142z"/>
	</g>
</g>
</svg>
