<?xml version="1.0" encoding="utf-8"?>
<!-- Generator: Adobe Illustrator 15.0.0, SVG Export Plug-In . SVG Version: 6.00 Build 0)  -->
<!DOCTYPE svg PUBLIC "-//W3C//DTD SVG 1.1//EN" "http://www.w3.org/Graphics/SVG/1.1/DTD/svg11.dtd">
<svg version="1.1" id="Layer_1" xmlns="http://www.w3.org/2000/svg" xmlns:xlink="http://www.w3.org/1999/xlink" x="0px" y="0px"
	 width="1024px" height="1024px" viewBox="0 0 1024 1024" enable-background="new 0 0 1024 1024" xml:space="preserve">
<g id="Layer_2">
	<path fill="#00C5B0" d="M974.37,524.83c0,17.27-0.95,34.32-2.8,51.09c-2.141,19.37-5.471,38.36-9.931,56.92
		c-0.63,2.641-1.279,5.271-1.96,7.891c-39.87,154.14-157.42,277.02-308.39,324.39c-4.11,1.29-8.24,2.52-12.39,3.7
		c-20.351,5.75-41.271,10.149-62.66,13.069c-20.67,2.841-41.79,4.311-63.24,4.311c-254.81,0-461.37-206.561-461.37-461.37
		c0-38.38,4.69-75.65,13.52-111.3C114.95,212.49,296.57,63.46,513,63.46c216.43,0,398.05,149.03,447.85,350.07
		c4.311,17.38,7.631,35.15,9.9,53.25c0.2,1.6,0.39,3.19,0.57,4.8C973.33,489.05,974.37,506.82,974.37,524.83z"/>
</g>
<g id="Layer_2_2_">
	<path fill="#029176" d="M961.64,632.84c-0.63,2.641-1.279,5.271-1.96,7.891C919.81,794.87,802.5,920.5,621.731,973.312
		L178.286,502.319l-19.415-203.284l166.43-138.75l159.016,15.001l150.509,131.676L961.64,632.84z"/>
	<path fill="#029176" d="M959.68,640.73C873.5,931.5,621.731,973.312,621.731,973.312L264.723,622.112"/>
</g>
<g id="Layer_3" display="none">
	<path display="inline" fill="#41526B" stroke="#515251" stroke-width="4" stroke-miterlimit="10" d="M1018,514.83H8
		C8,472.82,13.13,432.02,22.8,393h980.4C1012.87,432.02,1018,472.82,1018,514.83z"/>
</g>
<g id="Layer_4" display="none">
	<path display="inline" fill="#41526B" stroke="#515251" stroke-width="7" stroke-miterlimit="10" d="M629.001,348.912v182.952
		c-5.876,13.131-13.056,25.705-21.445,37.562H241.219c-8.767-12.395-16.202-25.583-22.22-39.366V350.81
		c6.16-14.104,13.793-27.585,22.843-40.235h365.157C615.644,322.658,622.992,335.497,629.001,348.912z"/>
</g>
<rect x="567" y="430" display="none" fill="#E8E8E8" width="80" height="14"/>
<g id="Layer_3_1_">
	<rect x="365.304" y="556.5" fill="#FFFFFF" width="42.005" height="80.832"/>
	<rect x="365.304" y="406.5" fill="#FFFFFF" width="42.005" height="80.832"/>
	<rect x="365.304" y="315.332" fill="#FFFFFF" width="42.005" height="43.168"/>
	<rect x="365.304" y="251" fill="#FFFFFF" width="42.005" height="25.332"/>
	<rect x="365.304" y="219" fill="#FFFFFF" width="42.005" height="12.999"/>
	<rect x="365.304" y="204.375" fill="#FFFFFF" width="42.005" height="6.249"/>
</g>
<rect x="204" y="430" display="none" fill="#E8E8E8" width="188.333" height="14"/>
<g>
	<path d="M477.807,461.855c-0.396-5.703-6.431-1.799-9.507-1.46c-42.711,4.668-85.506,5.41-128.376,3.17
		c-10.809-0.57-21.564-2.726-32.355-2.771c-7.585-0.04-19.388-7.83-20.04,9.952c-0.225,5.92-10.025,4.416-15.833,4.41
		c-38.417-0.028-31.495,2.233-31.535-30.614c-0.013-23.63-8.566-47.161-0.676-70.897c1.631-4.913-2.877-6.333-6.153-8.057
		c-6.392-3.375-7.704-8.958-5.914-15.19c1.75-6.133,7.015-8.865,12.743-7.392c23.95,6.138,33.669-4.834,38.457-27.312
		c4.137-19.453,20.501-26.999,39.264-27.9c43.936-2.123,87.894-2.181,131.827,0c24.319,1.213,36.308,11.311,43.905,39.855
		c3.487,13.107,7.72,20.083,22.319,15.627c3.99-1.22,8.635-0.218,12.969-0.397c5.49-0.226,9.614,1.771,11.272,7.207
		c1.724,5.603,1.379,11.894-4.218,14.254c-8.754,3.707-6.83,9.283-5.941,16.285c3.715,29.287-3.115,58.289-3.578,87.541
		C526.21,481.494,479.146,481.262,477.807,461.855z"/>
	<path fill="#00C5B0" d="M277.19,339.937c1.972-7.016,4.182-13.989,5.903-21.082c4.337-17.947,14.968-25.57,34.021-26.781
		c44.093-2.812,87.976-2.951,132.068,0.105c18.241,1.267,28.72,8.211,32.79,25.775c1.665,7.168,4.323,14.106,6.771,21.913
		c-10.715,3-16.577,1.895-17.778-11.457c-0.994-10.968-9.373-18.578-20.914-19.446c-11.946-0.902-24.047-0.832-35.993-0.026
		c-10.675,0.713-18.466,7.119-20.788,17.526c-1.369,6.17-3.048,8.695-9.581,8.632c-6.687-0.056-10.31-1.623-11.849-8.946
		c-2.434-11.603-11.331-16.787-22.495-17.528c-9.692-0.643-19.458-0.426-29.18-0.181c-13.681,0.341-23.221,7.091-25.6,20.64
		C292.634,340.069,288.004,343.866,277.19,339.937z"/>
	<path fill="#00C5B0" d="M269.016,394.293c-10.47-1.692-11.514,2.543-9.509,8.874c2.144,6.771,37.494,24.613,44.248,22.445
		c4.037-1.289,4.665-4.87,4.608-8.392c-0.083-6.008-0.711-12.151-7.561-14.162"/>
	<path fill="#00C5B0" d="M500.406,393.077c10.833-1.693,11.914,2.542,9.839,8.873c-2.218,6.771-38.795,24.613-45.782,22.444
		c-4.178-1.29-4.826-4.871-4.769-8.392c0.086-6.007,0.734-12.151,7.821-14.162"/>
</g>
<g id="Layer_5" opacity="0.4">
	
		<radialGradient id="SVGID_1_" cx="433.4121" cy="458.9087" r="239.5017" gradientTransform="matrix(1 0 0 -1 -41.6602 860.04)" gradientUnits="userSpaceOnUse">
		<stop  offset="0" style="stop-color:#000000;stop-opacity:0"/>
		<stop  offset="0" style="stop-color:#020202;stop-opacity:0.2446"/>
		<stop  offset="0" style="stop-color:#090909;stop-opacity:0.3327"/>
		<stop  offset="0" style="stop-color:#141414;stop-opacity:0.3955"/>
		<stop  offset="0" style="stop-color:#252525;stop-opacity:0.4463"/>
		<stop  offset="0" style="stop-color:#3B3B3B;stop-opacity:0.4898"/>
		<stop  offset="0" style="stop-color:#575656;stop-opacity:0.5283"/>
		<stop  offset="0" style="stop-color:#777676;stop-opacity:0.5632"/>
		<stop  offset="0" style="stop-color:#9B9A9A;stop-opacity:0.5941"/>
		<stop  offset="0" style="stop-color:#A3A2A2;stop-opacity:0.6"/>
		<stop  offset="0.148" style="stop-color:#9FA4A3;stop-opacity:0.6592"/>
		<stop  offset="0.3055" style="stop-color:#92ACA8;stop-opacity:0.7222"/>
		<stop  offset="0.4674" style="stop-color:#7DB8AF;stop-opacity:0.787"/>
		<stop  offset="0.6324" style="stop-color:#5FC9B9;stop-opacity:0.8529"/>
		<stop  offset="0.7997" style="stop-color:#38DFC7;stop-opacity:0.9199"/>
		<stop  offset="0.9667" style="stop-color:#0AF9D7;stop-opacity:0.9867"/>
		<stop  offset="1" style="stop-color:#00FFDA"/>
		<stop  offset="1" style="stop-color:#231F20;stop-opacity:3.988430e-008"/>
		<stop  offset="1" style="stop-color:#252122;stop-opacity:0.3906"/>
		<stop  offset="1" style="stop-color:#2C2829;stop-opacity:0.537"/>
		<stop  offset="1" style="stop-color:#373435;stop-opacity:0.6425"/>
		<stop  offset="1" style="stop-color:#484546;stop-opacity:0.7283"/>
		<stop  offset="1" style="stop-color:#5E5B5C;stop-opacity:0.802"/>
		<stop  offset="1" style="stop-color:#797777;stop-opacity:0.8676"/>
		<stop  offset="1" style="stop-color:#999798;stop-opacity:0.927"/>
		<stop  offset="1" style="stop-color:#BCBCBC;stop-opacity:0.98"/>
		<stop  offset="1" style="stop-color:#CCCCCC"/>
	</radialGradient>
	<circle fill="url(#SVGID_1_)" cx="391.752" cy="401.131" r="239.502"/>
</g>
<g id="Layer_5_1_" opacity="0.5">
	<circle fill="#00C5B0" cx="380.752" cy="384.131" r="233.068"/>
</g>
<g>
	<g>
		<path fill="#515251" d="M838.812,764.331L679.606,605.126c-6.894-6.895-18.091-6.895-24.985,0l-5.011,5.021l-49.682-49.681
			c2.397-3.069,4.707-6.196,6.951-9.367c9.672-13.669,17.95-28.167,24.725-43.309c14.672-32.72,22.395-68.469,22.395-105.406
			c0-36.98-7.709-72.762-22.395-105.538c-6.927-15.468-15.4-30.27-25.369-44.201c-8.277-11.601-17.591-22.602-27.872-32.896
			c-48.788-48.775-113.643-75.648-182.635-75.648c-68.993,0-133.847,26.86-182.634,75.637
			c-10.294,10.294-19.606,21.295-27.885,32.907c-10.435,14.584-19.237,30.129-26.338,46.39
			c-14.051,32.166-21.425,67.185-21.425,103.337s7.374,71.171,21.425,103.337c6.939,15.891,15.511,31.097,25.619,45.388
			c8.463,11.982,18.016,23.322,28.604,33.908c48.787,48.789,113.641,75.647,182.634,75.647c57.992,0,113.02-19.051,158.083-54.081
			l49.669,49.682l-5.011,5.011c-6.895,6.907-6.895,18.093,0,24.987l159.205,159.215c22.372,22.362,58.765,22.362,81.139,0
			c10.835-10.839,16.806-25.248,16.806-40.574C855.618,789.58,849.648,775.169,838.812,764.331z M553.364,560.021
			c-42.103,42.108-98.088,65.299-157.636,65.299c-59.549,0-115.537-23.191-157.648-65.299c-2.908-2.91-5.719-5.882-8.441-8.922
			c-36.762-40.933-56.858-93.282-56.858-148.726c0-55.889,20.434-108.641,57.763-149.728c2.439-2.69,4.956-5.326,7.539-7.908
			c42.11-42.111,98.097-65.301,157.647-65.301c59.549,0,115.533,23.19,157.635,65.301c2.58,2.581,5.096,5.217,7.537,7.908
			c37.329,41.086,57.762,93.839,57.762,149.728c0,55.442-20.097,107.792-56.858,148.726
			C559.093,554.14,556.271,557.112,553.364,560.021z"/>
	</g>
</g>
<path fill="#E8E8E8" d="M835.98,759.707L676.775,600.503c-6.895-6.895-18.092-6.895-24.987,0l-5.01,5.021l-49.683-49.682
	c2.397-3.068,4.707-6.195,6.95-9.365c9.673-13.671,17.952-28.169,24.726-43.308c14.673-32.721,22.396-68.471,22.396-105.408
	c0-36.98-7.71-72.762-22.396-105.537c-6.927-15.468-15.401-30.27-25.368-44.202c-8.277-11.6-17.591-22.602-27.873-32.896
	c-48.788-48.776-113.642-75.648-182.634-75.648c-68.993,0-133.847,26.861-182.634,75.637
	c-10.294,10.293-19.607,21.294-27.885,32.906c-10.435,14.586-19.236,30.129-26.338,46.392
	c-14.051,32.165-21.425,67.185-21.425,103.337c0,36.153,7.374,71.171,21.425,103.336c6.938,15.892,15.511,31.098,25.619,45.39
	c8.464,11.98,18.016,23.32,28.604,33.907c48.787,48.786,113.641,75.648,182.634,75.648c57.992,0,113.02-19.052,158.082-54.081
	l49.669,49.681l-5.011,5.01c-6.895,6.907-6.895,18.093,0,24.988l159.206,159.215c22.372,22.362,58.763,22.362,81.138,0
	c10.836-10.839,16.807-25.249,16.807-40.574C852.787,784.958,846.818,770.546,835.98,759.707z M550.531,555.398
	c-42.099,42.108-98.086,65.299-157.635,65.299c-59.549,0-115.537-23.191-157.647-65.299c-2.909-2.91-5.718-5.882-8.442-8.92
	c-36.761-40.936-56.858-93.284-56.858-148.727c0-55.889,20.434-108.641,57.763-149.728c2.44-2.69,4.956-5.326,7.538-7.908
	c42.11-42.11,98.098-65.3,157.647-65.3c59.548,0,115.536,23.191,157.635,65.3c2.583,2.582,5.098,5.218,7.539,7.908
	c37.329,41.087,57.763,93.838,57.763,149.728c0,55.442-20.098,107.792-56.859,148.727
	C556.261,549.517,553.439,552.489,550.531,555.398z"/>
<line display="none" fill="none" stroke="#E8E8E8" stroke-width="5" stroke-miterlimit="10" x1="687" y1="453.915" x2="755" y2="453.915"/>
<line display="none" fill="none" stroke="#E8E8E8" stroke-width="5" stroke-miterlimit="10" x1="87" y1="453.915" x2="155" y2="453.915"/>
<line display="none" fill="none" stroke="#E8E8E8" stroke-width="5" stroke-miterlimit="10" x1="58" y1="453.92" x2="11.64" y2="453.92"/>
<line display="none" fill="none" stroke="#E8E8E8" stroke-width="5" stroke-miterlimit="10" x1="777" y1="453.915" x2="845" y2="453.915"/>
<line display="none" fill="none" stroke="#E8E8E8" stroke-width="5" stroke-miterlimit="10" x1="867" y1="453.915" x2="935" y2="453.915"/>
<path display="none" fill="#E8E8E8" d="M1014.67,456.54H957v-5.25h57.04C1014.26,453.04,1014.47,454.79,1014.67,456.54z"/>
</svg>
