<?xml version="1.0" encoding="utf-8"?>
<!-- Generator: Adobe Illustrator 16.0.0, SVG Export Plug-In . SVG Version: 6.00 Build 0)  -->
<!DOCTYPE svg PUBLIC "-//W3C//DTD SVG 1.1//EN" "http://www.w3.org/Graphics/SVG/1.1/DTD/svg11.dtd">
<svg version="1.1" xmlns="http://www.w3.org/2000/svg" xmlns:xlink="http://www.w3.org/1999/xlink" x="0px" y="0px" width="25px"
	 height="25px" viewBox="0 0 25 25" enable-background="new 0 0 25 25" xml:space="preserve">
<g id="Layer_1">
	<path fill="#9DCB3B" d="M24.81,0.78v23.44c0,0.33-0.26,0.59-0.59,0.59H0.78c-0.33,0-0.59-0.26-0.59-0.59V0.78
		c0-0.32,0.26-0.59,0.59-0.59h23.44C24.55,0.19,24.81,0.46,24.81,0.78z"/>
	<g id="Layer_2">
	</g>
	<linearGradient id="SVGID_1_" gradientUnits="userSpaceOnUse" x1="24.0859" y1="26.1172" x2="12.2384" y2="11.9546">
		<stop  offset="0" style="stop-color:#9DCB3B"/>
		<stop  offset="0.3875" style="stop-color:#98C436"/>
		<stop  offset="0.9405" style="stop-color:#8AB129"/>
		<stop  offset="1" style="stop-color:#88AF27"/>
	</linearGradient>
	<path fill="url(#SVGID_1_)" d="M24.81,10.25v13.97c0,0.33-0.26,0.59-0.59,0.59H13.03L4,18.84l0.1-0.28C3.5,14.063,7,16.72,7,16.72
		l11.78-6.49l1.31,0.21c-2.985-4.752,2.55-2.78,2.55-2.78L24.81,10.25z"/>
	<g>
		<g>
			<linearGradient id="SVGID_2_" gradientUnits="userSpaceOnUse" x1="7.2388" y1="11.8066" x2="13.1484" y2="11.8066">
				<stop  offset="0" style="stop-color:#88AF27"/>
				<stop  offset="0.1376" style="stop-color:#8CB52B"/>
				<stop  offset="0.6255" style="stop-color:#99C537"/>
				<stop  offset="1" style="stop-color:#9DCB3B"/>
			</linearGradient>
			<path fill="url(#SVGID_2_)" d="M7.719,9.094c0,0-0.75,1.885-0.375,2.583s1.688,3.339,1.688,3.339l0.64-1.116l2.829-1.584
				l0.648-0.363l-2.476-2.858C10.673,9.094,8.644,7.977,7.719,9.094z"/>
			<linearGradient id="SVGID_3_" gradientUnits="userSpaceOnUse" x1="14.3125" y1="8.9961" x2="17.9043" y2="8.9961">
				<stop  offset="0" style="stop-color:#88AF27"/>
				<stop  offset="0.1376" style="stop-color:#8CB52B"/>
				<stop  offset="0.6255" style="stop-color:#99C537"/>
				<stop  offset="1" style="stop-color:#9DCB3B"/>
			</linearGradient>
			<path fill="url(#SVGID_3_)" d="M14.313,8.783c0,0,0.297-1.877,1.813-0.986l0.362,0.096l1.417,1.4l-2.048,1.142
				C15.856,10.435,14.766,10.285,14.313,8.783z"/>
		</g>
		
			<rect x="5.742" y="12.099" transform="matrix(0.8724 -0.4887 0.4887 0.8724 -4.7294 8.0978)" fill="#FFFFFF" width="14.812" height="2.02"/>
		<linearGradient id="SVGID_4_" gradientUnits="userSpaceOnUse" x1="6.1934" y1="15.3301" x2="12.1704" y2="15.3301">
			<stop  offset="0" style="stop-color:#E2E2E2;stop-opacity:0.46"/>
			<stop  offset="0.0511" style="stop-color:#E4E4E4;stop-opacity:0.4876"/>
			<stop  offset="0.6155" style="stop-color:#F8F8F8;stop-opacity:0.7924"/>
			<stop  offset="1" style="stop-color:#FFFFFF"/>
		</linearGradient>
		<polygon fill="url(#SVGID_4_)" points="11.183,13.052 6.193,15.848 7.181,17.609 12.17,14.814 		"/>
		<linearGradient id="SVGID_5_" gradientUnits="userSpaceOnUse" x1="14.1514" y1="10.8789" x2="20.1289" y2="10.8789">
			<stop  offset="0" style="stop-color:#FFFFFF"/>
			<stop  offset="1" style="stop-color:#E2E2E2;stop-opacity:0.46"/>
		</linearGradient>
		<polygon fill="url(#SVGID_5_)" points="19.141,8.6 14.151,11.396 15.139,13.158 20.129,10.363 		"/>
		<path fill="#FFFFFF" d="M6.08,15.74c-1.04-0.29-2.13,0.31-2.42,1.359c-0.29,1.04,0.31,2.131,1.36,2.42
			c1.04,0.301,2.13-0.31,2.42-1.35C7.74,17.12,7.13,16.04,6.08,15.74z M6.95,18.03c-0.22,0.77-1.02,1.21-1.79,1
			c-0.77-0.221-1.22-1.021-1-1.79c0.21-0.771,1.01-1.221,1.78-1C6.71,16.45,7.16,17.25,6.95,18.03z"/>
		<path fill="#FFFFFF" d="M21.44,6.77c-1.11-0.32-2.271,0.33-2.58,1.45c-0.32,1.11,0.33,2.27,1.439,2.58
			c1.12,0.31,2.271-0.33,2.59-1.45C23.2,8.24,22.55,7.08,21.44,6.77z M22.27,9.18c-0.22,0.77-1.02,1.22-1.789,1
			c-0.771-0.22-1.221-1.02-1-1.79c0.22-0.77,1.02-1.22,1.789-1C22.04,7.61,22.48,8.41,22.27,9.18z"/>
		<g>
			<path fill="#FF3333" d="M8.999,9.785c-0.435,0-0.79,0.355-0.79,0.791c0,0.438,0.354,0.791,0.791,0.791
				c0.438,0,0.79-0.354,0.79-0.791C9.79,10.14,9.438,9.785,8.999,9.785 M8.999,9.785c-0.435,0-0.79,0.355-0.79,0.791
				c0,0.438,0.354,0.791,0.791,0.791c0.438,0,0.79-0.354,0.79-0.791C9.79,10.14,9.438,9.785,8.999,9.785 M8.999,9.785
				c-0.435,0-0.79,0.355-0.79,0.791c0,0.438,0.354,0.791,0.791,0.791c0.438,0,0.79-0.354,0.79-0.791
				C9.79,10.14,9.438,9.785,8.999,9.785 M8.999,9.785c-0.435,0-0.79,0.355-0.79,0.791c0,0.438,0.354,0.791,0.791,0.791
				c0.438,0,0.79-0.354,0.79-0.791C9.79,10.14,9.438,9.785,8.999,9.785 M8.999,8.337c-1.234,0-2.237,1.003-2.237,2.238
				c0.001,0.447,0.13,0.859,0.356,1.211l1.881,3.178l0.032,0.051l1.851-3.229c0.114-0.175,0.202-0.364,0.264-0.569
				c0.06-0.205,0.094-0.417,0.094-0.642C11.239,9.341,10.236,8.337,8.999,8.337 M8.999,8.99c0.876,0,1.586,0.711,1.588,1.585
				c-0.002,0.876-0.712,1.586-1.588,1.586c-0.874,0-1.584-0.71-1.583-1.586C7.416,9.702,8.125,8.99,8.999,8.99 M9,11.367
				c0.438,0,0.79-0.354,0.79-0.791c0-0.436-0.352-0.791-0.791-0.791c-0.435,0-0.79,0.355-0.79,0.791
				C8.209,11.013,8.564,11.367,9,11.367 M8.999,9.785c-0.435,0-0.79,0.355-0.79,0.791c0,0.438,0.354,0.791,0.791,0.791
				c0.438,0,0.79-0.354,0.79-0.791C9.79,10.14,9.438,9.785,8.999,9.785 M8.999,9.785c-0.435,0-0.79,0.355-0.79,0.791
				c0,0.438,0.354,0.791,0.791,0.791c0.438,0,0.79-0.354,0.79-0.791C9.79,10.14,9.438,9.785,8.999,9.785 M8.999,9.785
				c-0.435,0-0.79,0.355-0.79,0.791c0,0.438,0.354,0.791,0.791,0.791c0.438,0,0.79-0.354,0.79-0.791
				C9.79,10.14,9.438,9.785,8.999,9.785 M8.999,9.785c-0.435,0-0.79,0.355-0.79,0.791c0,0.438,0.354,0.791,0.791,0.791
				c0.438,0,0.79-0.354,0.79-0.791C9.79,10.14,9.438,9.785,8.999,9.785"/>
			<path fill="#FF3333" d="M15.43,8.161c-0.249,0-0.451,0.203-0.451,0.452c0,0.25,0.202,0.452,0.451,0.452
				c0.251,0,0.451-0.202,0.451-0.452C15.881,8.363,15.681,8.161,15.43,8.161 M15.43,8.161c-0.249,0-0.451,0.203-0.451,0.452
				c0,0.25,0.202,0.452,0.451,0.452c0.251,0,0.451-0.202,0.451-0.452C15.881,8.363,15.681,8.161,15.43,8.161 M15.43,8.161
				c-0.249,0-0.451,0.203-0.451,0.452c0,0.25,0.202,0.452,0.451,0.452c0.251,0,0.451-0.202,0.451-0.452
				C15.881,8.363,15.681,8.161,15.43,8.161 M15.43,8.161c-0.249,0-0.451,0.203-0.451,0.452c0,0.25,0.202,0.452,0.451,0.452
				c0.251,0,0.451-0.202,0.451-0.452C15.881,8.363,15.681,8.161,15.43,8.161 M15.43,7.334c-0.705,0-1.278,0.573-1.278,1.278
				c0.001,0.255,0.074,0.491,0.204,0.692l1.074,1.815l0.018,0.029l1.058-1.844c0.065-0.101,0.115-0.208,0.15-0.325
				c0.034-0.117,0.054-0.238,0.054-0.367C16.709,7.907,16.136,7.334,15.43,7.334 M15.43,7.707c0.5,0,0.905,0.406,0.906,0.905
				c-0.001,0.5-0.406,0.906-0.906,0.906s-0.905-0.406-0.904-0.906C14.525,8.113,14.93,7.707,15.43,7.707 M15.43,9.064
				c0.251,0,0.451-0.202,0.451-0.452c0-0.249-0.2-0.452-0.451-0.452c-0.249,0-0.451,0.203-0.451,0.452
				C14.979,8.862,15.181,9.064,15.43,9.064 M15.43,8.161c-0.249,0-0.451,0.203-0.451,0.452c0,0.25,0.202,0.452,0.451,0.452
				c0.251,0,0.451-0.202,0.451-0.452C15.881,8.363,15.681,8.161,15.43,8.161 M15.43,8.161c-0.249,0-0.451,0.203-0.451,0.452
				c0,0.25,0.202,0.452,0.451,0.452c0.251,0,0.451-0.202,0.451-0.452C15.881,8.363,15.681,8.161,15.43,8.161 M15.43,8.161
				c-0.249,0-0.451,0.203-0.451,0.452c0,0.25,0.202,0.452,0.451,0.452c0.251,0,0.451-0.202,0.451-0.452
				C15.881,8.363,15.681,8.161,15.43,8.161 M15.43,8.161c-0.249,0-0.451,0.203-0.451,0.452c0,0.25,0.202,0.452,0.451,0.452
				c0.251,0,0.451-0.202,0.451-0.452C15.881,8.363,15.681,8.161,15.43,8.161"/>
		</g>
	</g>
	<linearGradient id="SVGID_6_" gradientUnits="userSpaceOnUse" x1="14.4043" y1="8.7031" x2="14.4043" y2="8.7031">
		<stop  offset="0" style="stop-color:#88AF27"/>
		<stop  offset="0.1376" style="stop-color:#8CB52B"/>
		<stop  offset="0.6255" style="stop-color:#99C537"/>
		<stop  offset="1" style="stop-color:#9DCB3B"/>
	</linearGradient>
	<path fill="url(#SVGID_6_)" d="M14.404,8.703"/>
</g>
<g id="Layer_3">
</g>
</svg>
