<?xml version="1.0" encoding="utf-8"?>
<!-- Generator: Adobe Illustrator 16.0.0, SVG Export Plug-In . SVG Version: 6.00 Build 0)  -->
<!DOCTYPE svg PUBLIC "-//W3C//DTD SVG 1.1//EN" "http://www.w3.org/Graphics/SVG/1.1/DTD/svg11.dtd">
<svg version="1.1" xmlns="http://www.w3.org/2000/svg" xmlns:xlink="http://www.w3.org/1999/xlink" x="0px" y="0px" width="1137px"
	 height="1137px" viewBox="0 0 1137 1137" enable-background="new 0 0 1137 1137" xml:space="preserve">
<g id="Layer_1">
	<path fill="#EB7B5D" d="M1115.56,568.5c0,9.5-0.239,18.95-0.72,28.33c-2.91,57.16-14.6,112-33.75,163.21
		c-2.33,6.25-4.78,12.44-7.33,18.57c-14.77,35.46-33.17,69.04-54.72,100.27c-6.58,9.53-13.46,18.84-20.61,27.92
		c-24.689,31.351-52.739,59.92-83.6,85.19c-6.11,5.01-12.34,9.89-18.68,14.63c-81.57,61.11-180.771,99.96-288.601,107.56
		c-12.899,0.92-25.92,1.38-39.05,1.38c-5.81,0-11.59-0.09-17.36-0.27c-29.98-0.93-59.36-4.28-87.94-9.86
		C211.46,1056.34,21.44,834.61,21.44,568.5c0-122.89,40.52-236.32,108.94-327.65c4.74-6.34,9.62-12.56,14.63-18.68
		c25.26-30.86,53.84-58.91,85.18-83.61c9.08-7.16,18.4-14.03,27.93-20.6C346.3,57.09,453.24,21.44,568.5,21.44
		C870.63,21.44,1115.56,266.37,1115.56,568.5z"/>
	<linearGradient id="SVGID_1_" gradientUnits="userSpaceOnUse" x1="404.0439" y1="286.8672" x2="836.0443" y2="970.8663">
		<stop  offset="0" style="stop-color:#C7523C"/>
		<stop  offset="1" style="stop-color:#EB7B5D"/>
	</linearGradient>
	<path fill-rule="evenodd" clip-rule="evenodd" fill="url(#SVGID_1_)" d="M1081.09,760.04c-2.33,6.25-4.78,12.44-7.33,18.57
		c-14.77,35.46-33.17,69.04-54.72,100.27c-6.58,9.53-13.46,18.84-20.61,27.92c-24.689,31.351-52.739,59.92-83.6,85.19
		c-6.11,5.01-12.34,9.89-18.68,14.63c-81.57,61.11-180.771,99.96-288.601,107.56L451.68,951.42l-17.96-18.75l37.49-183.72
		L498.14,617l70.04-343.21L596,137.44l11.36,14.58L1081.09,760.04z"/>
	<g id="Layer_2">
	</g>
	<g>
		<path fill-rule="evenodd" clip-rule="evenodd" fill="#FFFFFF" d="M707.88,617c-0.66,44-2.09,87.98-3.939,131.95
			c-2.32,55.06-5.29,110.1-8.2,165.149c-1.53,29.181-13.55,39.86-43.9,41.681c-27.75,1.66-55.49,2.77-83.23,3.06
			c-1.65,0.021-3.31,0.03-4.97,0.04c-0.31,0-0.61,0.01-0.92,0c-1.65-0.01-3.3-0.02-4.95-0.04c-27.78-0.29-55.55-1.399-83.33-3.06
			c-30.39-1.82-42.42-12.5-43.96-41.681c-2.91-55.05-5.88-110.09-8.19-165.149C420.43,704.98,419,661,418.34,617
			c-0.52-34.47-0.57-68.96,0.04-103.47c0.29-16.03,97.54-99.63,94.91-126.62c-1.78-18.19,6.09-83.22,8.8-97.25
			c3.5-5.32,5.72-10.53,6.05-15.87c0.36-5.35-1.18-10.82-5.2-16.66c-3.22-4.68-3.22-12.11-3.35-18.32
			c-0.55-27.61-0.94-55.25-0.73-82.86c0.16-19.62,4.43-24.08,23.83-24.84c5.02-0.19,10.05-0.34,15.08-0.41
			c1.8-0.04,3.61-0.06,5.42-0.07c1.81,0.01,3.61,0.03,5.42,0.07c5.02,0.07,10.041,0.22,15.05,0.41c19.38,0.76,23.64,5.22,23.8,24.84
			c0.22,27.61-0.18,55.25-0.729,82.86c-0.12,6.21-0.12,13.64-3.351,18.32c-4.01,5.83-5.55,11.31-5.189,16.66
			c0.329,5.34,2.54,10.55,6.04,15.87c2.71,14.03,10.569,79.06,8.789,97.25C610.4,413.9,707.54,497.5,707.83,513.53
			C708.44,548.04,708.39,582.52,707.88,617z"/>
		<path fill-rule="evenodd" clip-rule="evenodd" fill="#FFFFFF" d="M568.61,130.6v0.1c-1.81-0.04-3.61-0.06-5.42-0.07
			C565,130.61,566.8,130.6,568.61,130.6z"/>
		<path fill-rule="evenodd" clip-rule="evenodd" fill="#FFFFFF" d="M563.641,958.88c1.662-0.011,3.315-0.021,4.968-0.041v0.071
			C566.956,958.91,565.293,958.899,563.641,958.88z"/>
		<path fill-rule="evenodd" clip-rule="evenodd" fill="#FFFFFF" d="M557.765,958.839c1.652,0.021,3.305,0.03,4.958,0.041
			c-1.653,0.02-3.305,0.03-4.958,0.03V958.839z"/>
		<path fill-rule="evenodd" clip-rule="evenodd" fill="#FFFFFF" d="M563.19,130.63c-1.81,0.01-3.62,0.03-5.42,0.07v-0.1
			C559.57,130.6,561.38,130.61,563.19,130.63z"/>
	</g>
	
		<radialGradient id="SVGID_2_" cx="563.1099" cy="682.9746" r="193.9841" gradientTransform="matrix(1 0 0 0.9381 0 42.2816)" gradientUnits="userSpaceOnUse">
		<stop  offset="0" style="stop-color:#EDDA2C"/>
		<stop  offset="1" style="stop-color:#EFAD27"/>
	</radialGradient>
	<path fill-rule="evenodd" clip-rule="evenodd" fill="url(#SVGID_2_)" d="M707.88,617c-0.66,44-2.09,87.98-3.939,131.95H422.29
		C420.43,704.98,419,661,418.34,617H707.88z"/>
	<path fill-rule="evenodd" clip-rule="evenodd" fill="#A3712A" d="M606.73,238.81c-0.12,6.21-0.12,13.64-3.351,18.32
		c-4.01,5.83-5.55,11.31-5.189,16.66h-70.05c0.36-5.35-1.18-10.82-5.2-16.66c-3.22-4.68-3.22-12.11-3.35-18.32
		c-0.55-27.61-0.94-55.25-0.73-82.86c0.16-19.62,4.43-24.08,23.83-24.84c5.02-0.19,10.05-0.34,15.08-0.41v-0.1
		c1.8,0,3.61,0.01,5.42,0.03c1.81-0.02,3.61-0.03,5.42-0.03v0.1c5.02,0.07,10.041,0.22,15.05,0.41c19.38,0.76,23.64,5.22,23.8,24.84
		C607.68,183.56,607.28,211.2,606.73,238.81z"/>
</g>
<g id="Layer_3">
</g>
</svg>
