<?xml version="1.0" encoding="utf-8"?>
<!-- Generator: Adobe Illustrator 16.0.0, SVG Export Plug-In . SVG Version: 6.00 Build 0)  -->
<!DOCTYPE svg PUBLIC "-//W3C//DTD SVG 1.1//EN" "http://www.w3.org/Graphics/SVG/1.1/DTD/svg11.dtd">
<svg version="1.1" id="Layer_1" xmlns="http://www.w3.org/2000/svg" xmlns:xlink="http://www.w3.org/1999/xlink" x="0px" y="0px"
	 width="1137px" height="1137px" viewBox="0 0 1137 1137" enable-background="new 0 0 1137 1137" xml:space="preserve">
<path fill="#41526B" d="M1112.04,562.08c0,9.5-0.24,18.95-0.72,28.33c-14.74,288.96-253.71,518.729-546.34,518.729
	c-5.811,0-11.591-0.09-17.36-0.27c-294.09-9.17-529.7-250.47-529.7-546.79c0-302.13,244.93-547.06,547.061-547.06
	C867.11,15.02,1112.04,259.95,1112.04,562.08z"/>
<linearGradient id="SVGID_1_" gradientUnits="userSpaceOnUse" x1="488.8872" y1="658.9287" x2="898.9435" y2="170.7671" gradientTransform="matrix(1 0 0 -1 8.3398 1113.04)">
	<stop  offset="0" style="stop-color:#223449"/>
	<stop  offset="0.1182" style="stop-color:#293B50"/>
	<stop  offset="0.3145" style="stop-color:#304258"/>
	<stop  offset="0.5581" style="stop-color:#35475C"/>
	<stop  offset="0.9892" style="stop-color:#36485E"/>
</linearGradient>
<path fill="url(#SVGID_1_)" d="M1111.32,590.41c-14.74,288.96-253.71,518.729-546.341,518.729c-5.81,0-11.59-0.09-17.359-0.27
	L346.506,771.048L780.64,323.76l14.88-16.06l16.74-18.07l-5.471-61.653L1111.32,590.41z"/>
<g>
	<path fill="#FDDBAF" d="M853.745,531.168c-1.733-0.228-3.47-0.343-5.188-0.343c-8.79-266.563-165.527-303.083-270.005-303.083
		c-104.468,0-257.809,36.52-266.6,303.083c-1.719,0-3.454,0.115-5.18,0.343c-31.581,4.353-53.366,44.896-48.628,90.62
		c4.731,45.694,34.186,79.218,65.781,74.893c0.657-0.084,1.299-0.213,1.941-0.343c17.633,84.655,47.201,140.369,63.006,160.548
		c21.585,27.528,132.733,86.21,189.681,86.21c56.948,0,171.5-58.682,193.092-86.21c15.806-20.179,45.366-75.893,63.008-160.548
		c0.64,0.13,1.289,0.259,1.94,0.343c31.594,4.325,61.035-29.198,65.789-74.893C907.102,576.064,885.341,535.521,853.745,531.168z"/>
	<path fill="#272627" d="M867.609,339.211c-48.314-145.362-150.679-200.919-221.348-122.586
		c-134.504-35.762-273.815-55.699-343.936,121.745c-41.463,104.919-9.205,191.543-6.615,196.251
		c4.739-1.969,10.126-3.352,16.241-3.796c16.34,39.959,31.767,69.686,45.068,45.268c13.307-24.403-8.755-106.061,16.389-138.897
		c60.024-78.405,102.188-1.712,204.545-1.712c102.364,0,144.928-47.736,207.898,1.712c32.528,25.544,3.081,114.494,16.39,138.897
		c13.299,24.418,28.728-5.309,45.067-45.268c6.422,0.471,15.497,2.698,20.405,4.839C871.02,526.616,908.244,461.47,867.609,339.211z
		"/>
</g>
</svg>
