<?xml version="1.0" encoding="utf-8"?>
<!-- Generator: Adobe Illustrator 16.0.0, SVG Export Plug-In . SVG Version: 6.00 Build 0)  -->
<!DOCTYPE svg PUBLIC "-//W3C//DTD SVG 1.1//EN" "http://www.w3.org/Graphics/SVG/1.1/DTD/svg11.dtd">
<svg version="1.1" xmlns="http://www.w3.org/2000/svg" xmlns:xlink="http://www.w3.org/1999/xlink" x="0px" y="0px" width="1137px"
	 height="1137px" viewBox="0 0 1137 1137" enable-background="new 0 0 1137 1137" xml:space="preserve">
<g id="Layer_1">
	<path fill="#31BCAB" d="M1115.56,568.5c0,9.5-0.239,18.95-0.72,28.33c-3.27,64.13-17.58,125.34-41.08,181.78
		c-19.279,46.279-44.729,89.359-75.33,128.189c-29.58,37.561-63.989,71.141-102.279,99.82
		c-91.33,68.42-204.761,108.939-327.65,108.939c-5.81,0-11.59-0.09-17.36-0.27c-29.98-0.93-59.36-4.28-87.94-9.86
		C211.46,1056.34,21.44,834.61,21.44,568.5c0-122.89,40.52-236.32,108.94-327.65c28.67-38.29,62.26-72.69,99.81-102.29
		C323.28,65.21,440.78,21.44,568.5,21.44C870.63,21.44,1115.56,266.37,1115.56,568.5z"/>
	<g id="Layer_2">
	</g>
	<linearGradient id="SVGID_1_" gradientUnits="userSpaceOnUse" x1="500.1548" y1="532.6172" x2="850.873" y2="1067.7328">
		<stop  offset="0" style="stop-color:#189583"/>
		<stop  offset="1" style="stop-color:#31BCAB"/>
	</linearGradient>
	<path fill-rule="evenodd" clip-rule="evenodd" fill="url(#SVGID_1_)" d="M1073.76,778.61
		c-19.279,46.279-44.729,89.359-75.33,128.189c-29.58,37.561-63.989,71.141-102.279,99.82
		c-91.33,68.42-204.761,108.939-327.65,108.939l-105.3-10.13L310,854.39l245.818-103.552l33.003-402.041L785.62,366.27
		L1073.76,778.61z"/>
	<g>
		<path fill-rule="evenodd" clip-rule="evenodd" fill="#FFFFFF" d="M542.465,722.358c0-162.151,0-323.869,0-485.806
			c1.397-0.413,2.344-0.876,3.321-0.958c108.516-8.893,185.541,40.459,239.837,130.674c30.543,50.748,46.771,106.748,56.647,164.72
			c3.442,20.221,5.85,40.616,8.73,60.934c-0.634,0.298-1.267,0.598-1.898,0.898c-2.069-3.049-4.135-6.098-6.202-9.146
			c-22.465-33.114-43.994-66.91-67.656-99.143c-23.52-32.04-51.64-59.815-87.234-78.828c-29.137-15.563-60.056-21.432-94.052-16.032
			c0,3.008,0,6.079,0,9.149c0,131.403-0.364,262.808,0.27,394.205c0.15,30.875-12.583,53.937-35.706,72.354
			c-28.278,22.524-61.418,32.748-96.86,35.956c-41.799,3.784-82.189-1.882-119.295-22.443c-11.741-6.504-22.88-14.995-32.373-24.498
			c-32.03-32.067-31.837-76.943-0.363-109.494c24.765-25.613,56.067-38.512,90.379-44.418c48.759-8.392,95.699-2.88,139.728,21.05
			C540.373,721.877,541.144,721.971,542.465,722.358z"/>
	</g>
</g>
<g id="Layer_3">
</g>
</svg>
