<?xml version="1.0" encoding="utf-8"?>
<!-- Generator: Adobe Illustrator 16.0.0, SVG Export Plug-In . SVG Version: 6.00 Build 0)  -->
<!DOCTYPE svg PUBLIC "-//W3C//DTD SVG 1.1//EN" "http://www.w3.org/Graphics/SVG/1.1/DTD/svg11.dtd">
<svg version="1.1" xmlns="http://www.w3.org/2000/svg" xmlns:xlink="http://www.w3.org/1999/xlink" x="0px" y="0px" width="1024px"
	 height="1024px" viewBox="0 0 1024 1024" enable-background="new 0 0 1024 1024" xml:space="preserve">
<g id="Layer_1">
	<g id="Layer_2">
		<path fill="#EB7B5D" d="M975.37,514.83c0,17.27-0.95,34.32-2.8,51.09c-2.44,22.12-6.44,43.76-11.891,64.811
			c-6.779,26.189-15.79,51.479-26.83,75.649C878.14,828.31,770.86,921.76,639.9,958.82c-20.351,5.75-41.271,10.149-62.66,13.069
			c-20.67,2.841-41.79,4.311-63.24,4.311c-9.97,0-19.86-0.32-29.67-0.94c-240.98-15.29-431.7-215.59-431.7-460.43
			c0-38.38,4.69-75.65,13.52-111.3C115.95,202.49,297.57,53.46,514,53.46c216.43,0,398.05,149.03,447.85,350.07
			c4.311,17.38,7.631,35.15,9.9,53.25c0.2,1.6,0.39,3.19,0.57,4.8C974.33,479.05,975.37,496.82,975.37,514.83z"/>
	</g>
</g>
<g id="Layer_5">
	<path fill="#C05540" d="M175.78,676.45c0.05,1.18,0.18,2.33,0.36,3.45l-2.42-2.311L175.78,676.45z"/>
	<path fill="#C05540" d="M960.68,630.73C912,812,770.86,921.76,639.9,958.82c-20.351,5.75-41.271,10.149-62.66,13.069
		c-20.67,2.841-41.79,4.311-63.24,4.311c-57.667,0.801-85.675-9.276-95.485-9.896L194.06,697.08h30.81
		c8.15,0,14.75-10.07,14.75-22.49V641l3.88-2.16h444.22v35.75c0,12.42,6.601,22.49,14.75,22.49h34.4
		c8.149,0,14.75-10.07,14.75-22.49v-38.62c0-2.439-0.25-4.779-0.72-6.979c0.619-1.37,0.949-2.83,0.949-4.34l-30.526-254.105
		c0-7.83,63.707,10.455,63.707,10.455c13.16,0,23.83-6.61,23.83-14.76v-34.39c0-0.98-0.16-1.94-0.45-2.87L960.68,630.73z"/>
</g>
<g id="Layer_4">
	<g>
		<g>
			<g opacity="0.2">
				<path d="M186.14,689.9c1.56,9.859,7.38,17.18,14.33,17.18h3.59L186.14,689.9z"/>
			</g>
			<g>
				<path fill="#FFFFFF" d="M176.14,679.9c1.56,9.859,7.38,17.18,14.33,17.18h3.59L176.14,679.9z"/>
			</g>
		</g>
		<g>
			<g opacity="0.2">
				<path d="M368.58,269.68c-0.08,18.67-15.38,33.79-34.18,33.76c-18.85-0.03-33.84-15.09-33.82-33.98
					c0.02-18.91,15.26-34.06,34.19-33.98C353.35,235.56,368.67,251.05,368.58,269.68z"/>
			</g>
			<g>
				<path fill="#FFFFFF" d="M358.58,259.68c-0.08,18.67-15.38,33.79-34.18,33.76c-18.85-0.03-33.84-15.09-33.82-33.98
					c0.02-18.91,15.26-34.06,34.19-33.98C343.35,225.56,358.67,241.05,358.58,259.68z"/>
			</g>
		</g>
		<g>
			<g opacity="0.2">
				<path d="M398.53,368.38H274c0.05-34.64,27.95-62.36,62.61-62.22C370.5,306.32,398.46,334.45,398.53,368.38z"/>
			</g>
			<g>
				<path fill="#FFFFFF" d="M388.53,358.38H264c0.05-34.64,27.95-62.36,62.61-62.22C360.5,296.32,388.46,324.45,388.53,358.38z"/>
			</g>
		</g>
		<g>
			<g opacity="0.2">
				<path d="M648.58,269.68c-0.08,18.67-15.38,33.79-34.18,33.76c-18.851-0.03-33.841-15.09-33.82-33.98
					c0.02-18.91,15.26-34.06,34.189-33.98C633.35,235.56,648.67,251.05,648.58,269.68z"/>
				<path d="M678.53,368.38H554c0.05-34.64,27.95-62.36,62.61-62.22C650.5,306.32,678.46,334.45,678.53,368.38z"/>
			</g>
			<g>
				<g>
					<path fill="#FFFFFF" d="M638.58,259.68c-0.08,18.67-15.38,33.79-34.18,33.76c-18.851-0.03-33.841-15.09-33.82-33.98
						c0.02-18.91,15.26-34.06,34.189-33.98C623.35,225.56,638.67,241.05,638.58,259.68z"/>
					<path fill="#FFFFFF" d="M668.53,358.38H544c0.05-34.64,27.95-62.36,62.61-62.22C640.5,296.32,668.46,324.45,668.53,358.38z"/>
				</g>
			</g>
		</g>
		<g>
			<g opacity="0.2">
				<path d="M498.53,299.71c-0.06,12.87-10.6,23.28-23.55,23.26c-12.98-0.02-23.31-10.4-23.3-23.41
					c0.02-13.03,10.52-23.46,23.55-23.41C488.04,276.21,498.59,286.88,498.53,299.71z"/>
			</g>
			<g>
				<g>
					<path fill="#FFFFFF" d="M488.53,289.71c-0.06,12.87-10.6,23.28-23.55,23.26c-12.98-0.02-23.31-10.4-23.3-23.41
						c0.02-13.03,10.52-23.46,23.55-23.41C478.04,266.21,488.59,276.88,488.53,289.71z"/>
				</g>
			</g>
		</g>
		<g>
			<g opacity="0.2">
				<path d="M818.4,338.96l-1.5-2.98C817.56,336.93,818.07,337.92,818.4,338.96z"/>
			</g>
			<g>
				<path fill="#FFFFFF" d="M808.4,328.96l-1.5-2.98C807.56,326.93,808.07,327.92,808.4,328.96z"/>
			</g>
		</g>
		<g>
			<g opacity="0.2">
				<path d="M210.49,341.85v34.39c0,8.15-10.68,14.76-23.85,14.76h-40.97c-13.17,0-23.84-6.61-23.84-14.76v-34.39
					c0-8.15,10.67-14.76,23.84-14.76h40.97C199.81,327.09,210.49,333.7,210.49,341.85z"/>
			</g>
			<g>
				<path fill="#FFFFFF" d="M200.49,331.85v34.39c0,8.15-10.68,14.76-23.85,14.76h-40.97c-13.17,0-23.84-6.61-23.84-14.76v-34.39
					c0-8.15,10.67-14.76,23.84-14.76h40.97C189.81,317.09,200.49,323.7,200.49,331.85z"/>
			</g>
		</g>
	</g>
</g>
<g id="Layer_4_copy">
	<g>
		<g>
			<g opacity="0.2">
				<path d="M761.85,414c0-7.83-8.96-14.19-20-14.19H205.79c-11.05,0-20,6.36-20,14.19v220.65c0,1.34,0.26,2.64,0.76,3.869
					c-0.54,2.33-0.83,4.841-0.83,7.45v38.62c0,12.42,6.6,22.49,14.75,22.49h34.4c8.15,0,14.75-10.07,14.75-22.49v-35.75h448.1v35.75
					c0,12.42,6.601,22.49,14.75,22.49h34.4c8.149,0,14.75-10.07,14.75-22.49v-38.62c0-2.439-0.25-4.779-0.72-6.979
					c0.619-1.37,0.949-2.83,0.949-4.34V414z M294.8,582.83c-32.58,0-59-26.41-59-59s26.42-59.01,59-59.01
					c32.59,0,59.01,26.42,59.01,59.01S327.39,582.83,294.8,582.83z M408.82,578.14c0,4.25-3.98,7.69-8.89,7.69h-6.23
					c-4.91,0-8.89-3.44-8.89-7.69V473.51c0-4.24,3.98-7.689,8.89-7.689h6.23c4.91,0,8.89,3.449,8.89,7.689V578.14z M448.82,578.14
					c0,4.25-3.98,7.69-8.89,7.69h-6.23c-4.91,0-8.89-3.44-8.89-7.69V473.51c0-4.24,3.98-7.689,8.89-7.689h6.23
					c4.91,0,8.89,3.449,8.89,7.689V578.14z M488.82,578.14c0,4.25-3.98,7.69-8.891,7.69H473.7c-4.91,0-8.891-3.44-8.891-7.69V473.51
					c0-4.24,3.98-7.689,8.891-7.689h6.229c4.91,0,8.891,3.449,8.891,7.689V578.14z M528.82,578.14c0,4.25-3.98,7.69-8.891,7.69
					H513.7c-4.91,0-8.891-3.44-8.891-7.69V473.51c0-4.24,3.98-7.689,8.891-7.689h6.229c4.91,0,8.891,3.449,8.891,7.689V578.14z
					 M568.82,578.14c0,4.25-3.98,7.69-8.891,7.69H553.7c-4.91,0-8.891-3.44-8.891-7.69V473.51c0-4.24,3.98-7.689,8.891-7.689h6.229
					c4.91,0,8.891,3.449,8.891,7.689V578.14z M657.8,580.83c-31.479,0-57-25.521-57-57c0-31.49,25.521-57.01,57-57.01
					c31.49,0,57.01,25.52,57.01,57.01C714.81,555.31,689.29,580.83,657.8,580.83z"/>
			</g>
			<g>
				<path fill="#FFFFFF" d="M751.85,404c0-7.83-8.96-14.19-20-14.19H195.79c-11.05,0-20,6.36-20,14.19v220.65
					c0,1.34,0.26,2.64,0.76,3.869c-0.54,2.33-0.83,4.841-0.83,7.45v38.62c0,12.42,6.6,22.49,14.75,22.49h34.4
					c8.15,0,14.75-10.07,14.75-22.49v-35.75h448.1v35.75c0,12.42,6.601,22.49,14.75,22.49h34.4c8.149,0,14.75-10.07,14.75-22.49
					v-38.62c0-2.439-0.25-4.779-0.72-6.979c0.619-1.37,0.949-2.83,0.949-4.34V404z M284.8,572.83c-32.58,0-59-26.41-59-59
					s26.42-59.01,59-59.01c32.59,0,59.01,26.42,59.01,59.01S317.39,572.83,284.8,572.83z M398.82,568.14c0,4.25-3.98,7.69-8.89,7.69
					h-6.23c-4.91,0-8.89-3.44-8.89-7.69V463.51c0-4.24,3.98-7.689,8.89-7.689h6.23c4.91,0,8.89,3.449,8.89,7.689V568.14z
					 M438.82,568.14c0,4.25-3.98,7.69-8.89,7.69h-6.23c-4.91,0-8.89-3.44-8.89-7.69V463.51c0-4.24,3.98-7.689,8.89-7.689h6.23
					c4.91,0,8.89,3.449,8.89,7.689V568.14z M478.82,568.14c0,4.25-3.98,7.69-8.891,7.69H463.7c-4.91,0-8.891-3.44-8.891-7.69V463.51
					c0-4.24,3.98-7.689,8.891-7.689h6.229c4.91,0,8.891,3.449,8.891,7.689V568.14z M518.82,568.14c0,4.25-3.98,7.69-8.891,7.69
					H503.7c-4.91,0-8.891-3.44-8.891-7.69V463.51c0-4.24,3.98-7.689,8.891-7.689h6.229c4.91,0,8.891,3.449,8.891,7.689V568.14z
					 M558.82,568.14c0,4.25-3.98,7.69-8.891,7.69H543.7c-4.91,0-8.891-3.44-8.891-7.69V463.51c0-4.24,3.98-7.689,8.891-7.689h6.229
					c4.91,0,8.891,3.449,8.891,7.689V568.14z M647.8,570.83c-31.479,0-57-25.521-57-57c0-31.49,25.521-57.01,57-57.01
					c31.49,0,57.01,25.52,57.01,57.01C704.81,545.31,679.29,570.83,647.8,570.83z"/>
			</g>
		</g>
		<g>
			<g opacity="0.2">
				<path d="M334.404,303.437c-18.85-0.03-33.84-15.089-33.82-33.975c0.02-18.914,15.26-34.063,34.185-33.98
					c18.585,0.083,33.898,15.568,33.817,34.199C368.502,288.35,353.197,303.465,334.404,303.437z"/>
			</g>
			<g>
				<path fill="#FFFFFF" d="M324.404,293.437c-18.85-0.03-33.84-15.089-33.82-33.975c0.02-18.914,15.26-34.063,34.185-33.98
					c18.585,0.083,33.898,15.568,33.817,34.199C358.502,278.35,343.197,293.465,324.404,293.437z"/>
			</g>
		</g>
		<g>
			<g opacity="0.2">
				<path d="M398.531,368.385h-124.53c0.046-34.641,27.947-62.369,62.609-62.223C370.5,306.316,398.461,334.448,398.531,368.385z"/>
			</g>
			<g>
				<path fill="#FFFFFF" d="M388.531,358.385h-124.53c0.046-34.641,27.947-62.369,62.609-62.223
					C360.5,296.316,388.461,324.448,388.531,358.385z"/>
			</g>
		</g>
		<g>
			<g opacity="0.2">
				<path d="M614.404,303.437c-18.85-0.03-33.841-15.089-33.82-33.975c0.02-18.914,15.26-34.063,34.184-33.98
					c18.586,0.083,33.898,15.568,33.817,34.199C648.502,288.35,633.197,303.465,614.404,303.437z"/>
				<path d="M678.531,368.385h-124.53c0.046-34.641,27.946-62.369,62.609-62.223C650.5,306.316,678.461,334.448,678.531,368.385z"/>
			</g>
			<g>
				<g>
					<path fill="#FFFFFF" d="M604.404,293.437c-18.85-0.03-33.841-15.089-33.82-33.975c0.02-18.914,15.26-34.063,34.184-33.98
						c18.586,0.083,33.898,15.568,33.817,34.199C638.502,278.35,623.197,293.465,604.404,293.437z"/>
					<path fill="#FFFFFF" d="M668.531,358.385h-124.53c0.046-34.641,27.946-62.369,62.609-62.223
						C640.5,296.316,668.461,324.448,668.531,358.385z"/>
				</g>
			</g>
		</g>
		<g>
			<g opacity="0.2">
				<path d="M474.983,322.969c-12.986-0.021-23.313-10.395-23.299-23.405c0.013-13.03,10.512-23.466,23.55-23.409
					c12.804,0.057,23.352,10.725,23.296,23.56C498.474,312.576,487.931,322.988,474.983,322.969z"/>
				<path d="M519.161,367.712h-85.79c0.032-23.864,19.252-42.966,43.133-42.866C499.851,324.953,519.113,344.333,519.161,367.712z"
					/>
			</g>
			<g>
				<g>
					<path fill="#FFFFFF" d="M464.983,312.969c-12.986-0.021-23.313-10.395-23.299-23.405c0.013-13.03,10.512-23.466,23.55-23.409
						c12.804,0.057,23.352,10.725,23.296,23.56C488.474,302.576,477.931,312.988,464.983,312.969z"/>
					<path fill="#FFFFFF" d="M509.161,357.712h-85.79c0.032-23.864,19.252-42.966,43.133-42.866
						C489.851,314.953,509.113,334.333,509.161,357.712z"/>
				</g>
			</g>
		</g>
		<g>
			<g opacity="0.2">
				<path d="M699.76,210.8H241.7c-12.83,0-23.24,8.95-23.24,20v140.01c0,11.05,10.41,20,23.24,20h458.06
					c12.84,0,23.24-8.95,23.24-20V230.8C723,219.75,712.6,210.8,699.76,210.8z M700.92,375.81H238.39V227.03h462.53V375.81z"/>
			</g>
			<g>
				<path fill="#FFFFFF" d="M689.76,200.8H231.7c-12.83,0-23.24,8.95-23.24,20v140.01c0,11.05,10.41,20,23.24,20h458.06
					c12.84,0,23.24-8.95,23.24-20V220.8C713,209.75,702.6,200.8,689.76,200.8z M690.92,365.81H228.39V217.03h462.53V365.81z"/>
			</g>
		</g>
		<g>
			<g opacity="0.2">
				<path d="M818.86,341.85v34.39c0,8.15-10.67,14.76-23.83,14.76h-40.91c-13.16,0-23.83-6.61-23.83-14.76v-34.39
					c0-8.15,10.67-14.76,23.83-14.76h40.91C808.19,327.09,818.86,333.7,818.86,341.85z"/>
			</g>
			<g>
				<path fill="#FFFFFF" d="M808.86,331.85v34.39c0,8.15-10.67,14.76-23.83,14.76h-40.91c-13.16,0-23.83-6.61-23.83-14.76v-34.39
					c0-8.15,10.67-14.76,23.83-14.76h40.91C798.19,317.09,808.86,323.7,808.86,331.85z"/>
			</g>
		</g>
		<g>
			<g opacity="0.2">
				<path d="M210.49,341.85v34.39c0,8.15-10.68,14.76-23.85,14.76h-40.97c-13.17,0-23.84-6.61-23.84-14.76v-34.39
					c0-8.15,10.67-14.76,23.84-14.76h40.97C199.81,327.09,210.49,333.7,210.49,341.85z"/>
			</g>
			<g>
				<path fill="#FFFFFF" d="M200.49,331.85v34.39c0,8.15-10.68,14.76-23.85,14.76h-40.97c-13.17,0-23.84-6.61-23.84-14.76v-34.39
					c0-8.15,10.67-14.76,23.84-14.76h40.97C189.81,317.09,200.49,323.7,200.49,331.85z"/>
			</g>
		</g>
	</g>
</g>
</svg>
