<?xml version="1.0" encoding="utf-8"?>
<!-- Generator: Adobe Illustrator 16.0.0, SVG Export Plug-In . SVG Version: 6.00 Build 0)  -->
<!DOCTYPE svg PUBLIC "-//W3C//DTD SVG 1.1//EN" "http://www.w3.org/Graphics/SVG/1.1/DTD/svg11.dtd">
<svg version="1.1" id="Layer_1" xmlns="http://www.w3.org/2000/svg" xmlns:xlink="http://www.w3.org/1999/xlink" x="0px" y="0px"
	 width="512px" height="512px" viewBox="0 0 512 512" enable-background="new 0 0 512 512" xml:space="preserve">
<g id="Layer_1_1_">
	<circle fill="#EB7B5D" cx="258.191" cy="258.913" r="252.914"/>
</g>
<g id="Layer_3">
	<g id="Layer_2_2_">
		<path fill="#C5543D" d="M501.545,325.707c-22.66,85.479-99.414,173.641-216.387,186.119L134.552,379.432L237.31,115l-2.29-3
			l50.976-42.911L501.545,325.707z"/>
	</g>
	<g id="Layer_2_copy">
		<path fill="#FFF431" d="M282.98,112h-41.96C225.75,89.52,215.01,60.39,262,60.39S298.25,89.52,282.98,112z"/>
		<path fill="#FFF431" d="M262,413c-266.88,0-81.55-228.26-18.69-298h37.379C343.55,184.74,528.88,413,262,413z"/>
	</g>
	<g id="Layer_2">
		<path fill="#EECF3C" d="M276.98,112h-41.96C219.75,89.52,209.01,60.39,256,60.39S292.25,89.52,276.98,112z"/>
		<path fill="#EECF3C" d="M256,413c-266.88,0-81.55-228.26-18.69-298h37.379C337.55,184.74,522.88,413,256,413z"/>
	</g>
	<g>
		<path fill="#C5543D" d="M216.326,213.614c30.906,0,61.811,0,92.715,0c-2.641,4.151-5.343,8.267-7.893,12.474
			c-0.875,1.445-1.914,1.862-3.541,1.84c-6.572-0.088-13.146-0.042-19.719-0.028c-0.695,0.001-1.389,0.112-1.615,0.132
			c2.262,4.875,4.465,9.63,6.896,14.879c8.178,0,16.967,0,26.107,0c-1.192,1.801-2.111,3.227-3.066,4.628
			c-2.111,3.094-3.605,7.351-6.537,8.934c-2.931,1.58-7.308,0.491-11.048,0.546c-2.011,0.028-4.021,0.004-5.989,0.004
			c-1.197,7.506-3.992,13.828-8.669,19.269c-7.667,8.919-17.669,13.726-28.943,16.171c-3.274,0.711-6.621,1.085-10.194,1.654
			c0.752,0.978,1.303,1.722,1.881,2.443c13.335,16.655,26.688,33.297,40.001,49.971c4.678,5.854,9.26,11.785,13.887,17.682
			c-8.024,0-16.052,0-24.076,0c-0.768-1.018-1.51-2.055-2.306-3.049c-16.843-21.057-33.693-42.104-50.526-63.168
			c-0.566-0.709-1.341-1.546-1.368-2.344c-0.139-4.147-0.065-8.301-0.065-12.713c1.383,0,2.476,0.03,3.565-0.004
			c6.559-0.216,13.157-0.076,19.667-0.768c7.701-0.816,14.733-3.684,20.237-9.418c4.129-4.301,6.519-9.404,6.622-15.727
			c-1.182,0-2.106,0-3.033,0c-10.667,0-21.334-0.017-32.004,0.006c-6.736,0.014-13.472,0.082-20.209,0.125c0-0.17,0-0.342,0-0.512
			c2.636-3.851,5.36-7.644,7.863-11.579c1.074-1.688,2.225-2.361,4.277-2.344c12.79,0.105,25.581,0.055,38.37,0.047
			c0.884-0.001,1.77-0.074,3.188-0.137c-1.305-1.959-2.207-3.59-3.367-5.011c-4.353-5.334-10.333-8.065-16.9-8.534
			c-11.113-0.794-22.284-0.795-33.43-1.129c0-0.17,0-0.341,0-0.512C210.179,222.834,213.253,218.224,216.326,213.614z"/>
	</g>
</g>
</svg>
