<?xml version="1.0" encoding="utf-8"?>
<!-- Generator: Adobe Illustrator 16.0.0, SVG Export Plug-In . SVG Version: 6.00 Build 0)  -->
<!DOCTYPE svg PUBLIC "-//W3C//DTD SVG 1.1//EN" "http://www.w3.org/Graphics/SVG/1.1/DTD/svg11.dtd">
<svg version="1.1" id="Layer_1" xmlns="http://www.w3.org/2000/svg" xmlns:xlink="http://www.w3.org/1999/xlink" x="0px" y="0px"
	 width="35px" height="35px" viewBox="0 0 35 35" enable-background="new 0 0 35 35" xml:space="preserve">
<g id="Layer_1_1_">
	<path fill="#70CCDB" d="M34.58,17.5c0,7.359-4.63,13.63-11.17,16.04c-0.41,0.149-0.82,0.29-1.25,0.399
		c-0.131,0.041-0.271,0.08-0.4,0.109c-1.369,0.36-2.81,0.561-4.29,0.561c-9.44,0-17.1-7.67-17.1-17.109
		c0-9.44,7.66-17.11,17.1-17.11c8.52,0,15.559,6.22,16.879,14.34c0.01,0.06,0.021,0.12,0.029,0.18c0.061,0.38,0.109,0.77,0.141,1.16
		C34.561,16.54,34.58,17.02,34.58,17.5z"/>
	<path fill="#353535" d="M34.58,17.5c0,7.359-4.63,13.63-11.17,16.04c-0.41,0.149-0.82,0.29-1.25,0.399
		c-0.131,0.041-0.271,0.08-0.4,0.109c-1.369,0.36-2.81,0.561-4.29,0.561c-9.44,0-17.1-7.67-17.1-17.109
		c0-9.44,7.66-17.11,17.1-17.11c8.52,0,15.559,6.22,16.879,14.34c0.01,0.06,0.021,0.12,0.029,0.18c0.061,0.38,0.109,0.77,0.141,1.16
		C34.561,16.54,34.58,17.02,34.58,17.5z"/>
	<path display="none" fill="#FFFFFF" d="M34.58,17.5c0,7.359-4.63,13.63-11.17,16.04c-0.41,0.149-0.82,0.29-1.25,0.399l-4.68-5.75
		L22.391,8.73l11.959,6c0.012,0.06,0.021,0.12,0.03,0.18C34.52,15.75,34.58,16.62,34.58,17.5z"/>
</g>
<g id="Layer_3">
	<linearGradient id="SVGID_1_" gradientUnits="userSpaceOnUse" x1="12.7466" y1="14.7939" x2="33.6216" y2="28.1689">
		<stop  offset="0" style="stop-color:#191919"/>
		<stop  offset="1" style="stop-color:#353535"/>
	</linearGradient>
	<path fill="url(#SVGID_1_)" d="M34.58,17.5c0,7.359-4.63,13.63-11.17,16.04c-0.41,0.149-0.82,0.29-1.25,0.399
		c-0.131,0.041-0.271,0.08-0.4,0.109l-6.558-6.293L19.66,16.94c1.41-0.73,1.027-2.2,1.027-3.9c0-1.14-1.78-3.77-2.5-4.54l3.063-0.54
		c0.09,0.05,2.374,0.314,2.454,0.375L34.52,16.07C34.561,16.54,34.58,17.02,34.58,17.5z"/>
	<path fill="#E5E5E5" d="M19.18,8.54c-0.66,0.14-1.26,0.45-1.76,0.87c0.34,0.2,0.64,0.45,0.9,0.74c0.67,0.71,1.069,1.67,1.069,2.73
		c0,1.35-0.649,2.54-1.649,3.27c0.68,0.47,1.51,0.75,2.399,0.75c0.24,0,0.471-0.02,0.7-0.06l0.32-0.62c0.37-0.79,0.56-1.67,0.56-2.6
		C21.72,11.54,20.73,9.69,19.18,8.54z M11.31,12.88c0-2.22,1.78-4.01,3.99-4.04c0.51-0.55,1.12-1.01,1.8-1.35
		c-0.55-0.16-1.14-0.25-1.74-0.25c-3.52,0-6.37,2.86-6.37,6.38c0,0.93,0.2,1.81,0.57,2.6l-0.01,0.01l5.65,11.53l2.33-4.51
		l-3.16-6.44C12.61,16.37,11.31,14.77,11.31,12.88z"/>
</g>
<path fill="#FFFFFF" d="M23.704,8.334c-0.072-0.056-0.156-0.102-0.237-0.148c-0.961-0.601-2.106-0.942-3.316-0.942
	c-3.518,0-6.372,2.854-6.372,6.373c0,0.933,0.203,1.81,0.572,2.604l-0.008,0.009l5.651,11.526l5.642-10.916l0.314-0.619
	c0.369-0.794,0.563-1.671,0.563-2.604C26.513,11.419,25.404,9.479,23.704,8.334z M21.997,16.479
	c-0.555,0.286-1.191,0.453-1.856,0.453c-2.234,0-4.035-1.819-4.035-4.055c0-2.234,1.801-4.036,4.035-4.036
	c1.183,0,2.244,0.499,2.974,1.312c0.665,0.711,1.07,1.671,1.07,2.724C24.185,14.448,23.299,15.806,21.997,16.479z"/>
</svg>
