<?xml version="1.0" encoding="utf-8"?>
<!-- Generator: Adobe Illustrator 16.0.0, SVG Export Plug-In . SVG Version: 6.00 Build 0)  -->
<!DOCTYPE svg PUBLIC "-//W3C//DTD SVG 1.1//EN" "http://www.w3.org/Graphics/SVG/1.1/DTD/svg11.dtd">
<svg version="1.1" xmlns="http://www.w3.org/2000/svg" xmlns:xlink="http://www.w3.org/1999/xlink" x="0px" y="0px" width="25px"
	 height="25px" viewBox="0 0 25 25" enable-background="new 0 0 25 25" xml:space="preserve">
<g id="Layer_2">
</g>
<g id="Layer_1">
	<path fill="#EAEAEA" d="M24.7,24.114c0,0.323-0.263,0.586-0.586,0.586H0.886c-0.323,0-0.585-0.263-0.585-0.586V0.886
		C0.3,0.563,0.563,0.3,0.886,0.3h23.229c0.323,0,0.586,0.262,0.586,0.585V24.114z"/>
	<path fill="#F37650" d="M24.04,1.51v21.98c0,0.31-0.24,0.55-0.55,0.55H1.51c-0.31,0-0.55-0.24-0.55-0.55V1.51
		c0-0.31,0.24-0.55,0.55-0.55h21.98C23.8,0.96,24.04,1.2,24.04,1.51z"/>
	<path fill="#D84D27" d="M24.04,11.46v12.03c0,0.31-0.24,0.55-0.55,0.55h-9.662l-1.841-1.574L11.701,18l1.494-5.288L4.958,4.476
		l9.292,6.431l4.9-4.246L24.04,11.46z"/>
	<path fill="#FFFFFF" d="M18.928,7.28c0.234-0.234,0.289-0.56,0.122-0.727l-0.655-0.656c-0.167-0.167-0.492-0.113-0.727,0.122
		l-5.472,5.471c-0.234,0.234-0.289,0.56-0.122,0.727l0.656,0.656c0.167,0.166,0.492,0.112,0.727-0.122L18.928,7.28z"/>
	<path fill="#FFFFFF" d="M11.701,21.766c0,0.398,0.172,0.724,0.384,0.724h0.833c0.212,0,0.384-0.323,0.384-0.723v-9.325
		c0-0.4-0.172-0.724-0.384-0.724h-0.833c-0.211,0.001-0.383,0.324-0.384,0.723V21.766z"/>
	<circle fill="#EAEAEA" cx="12.5" cy="12.5" r="1.516"/>
	<path fill="#EAEAEA" d="M15.572,15.631c0.102,0.102,0.244,0.125,0.32,0.051l0,0c0.074-0.076,0.053-0.221-0.049-0.32L4.958,4.476
		c-0.102-0.102-0.245-0.124-0.32-0.049l0,0c-0.075,0.075-0.053,0.218,0.049,0.32L15.572,15.631z"/>
</g>
</svg>
