<?xml version="1.0" encoding="utf-8"?>
<!-- Generator: Adobe Illustrator 16.0.0, SVG Export Plug-In . SVG Version: 6.00 Build 0)  -->
<!DOCTYPE svg PUBLIC "-//W3C//DTD SVG 1.1//EN" "http://www.w3.org/Graphics/SVG/1.1/DTD/svg11.dtd">
<svg version="1.1" id="Layer_1" xmlns="http://www.w3.org/2000/svg" xmlns:xlink="http://www.w3.org/1999/xlink" x="0px" y="0px"
	 width="30px" height="30px" viewBox="0 0 30 30" enable-background="new 0 0 30 30" xml:space="preserve">
<circle fill="#70CCDB" cx="15.003" cy="15.008" r="11.23"/>
<radialGradient id="SVGID_1_" cx="15.0029" cy="15.0078" r="11.2305" gradientUnits="userSpaceOnUse">
	<stop  offset="0" style="stop-color:#70CCDB"/>
	<stop  offset="0.5009" style="stop-color:#6ECBDA"/>
	<stop  offset="0.6813" style="stop-color:#68C6D5"/>
	<stop  offset="0.8099" style="stop-color:#5BBFCE"/>
	<stop  offset="0.9131" style="stop-color:#45B6C5"/>
	<stop  offset="1" style="stop-color:#1AABBA"/>
</radialGradient>
<circle fill="url(#SVGID_1_)" cx="15.003" cy="15.008" r="11.23"/>
<path fill-rule="evenodd" clip-rule="evenodd" fill="#3DA7B2" d="M15.733,22.513l4.585,4.39c0,0,8.801-8.174,7.371-12.518
	l-8.116-5.459l-3.84,0.773c0,0,2.472,2.115-0.273,4.972l-3.144,1.024L15.733,22.513z"/>
<g>
	<path fill-rule="evenodd" clip-rule="evenodd" fill="#EFEB58" d="M17.929,22.513c-0.732,0-1.463,0-2.195,0
		c-0.009-0.017-0.013-0.03-0.025-0.044c-0.788-0.989-1.577-1.976-2.366-2.965c-0.83-1.037-1.657-2.074-2.488-3.111
		c-0.019-0.023-0.028-0.048-0.028-0.08c0.001-0.368,0-0.736,0-1.105c0-0.017,0-0.034,0-0.051c0.017-0.002,0.031-0.002,0.045-0.002
		c0.314,0,0.625,0,0.94,0c0.281,0,0.563,0.003,0.846-0.028c0.235-0.024,0.467-0.062,0.696-0.121c0.344-0.09,0.67-0.22,0.967-0.416
		c0.342-0.222,0.615-0.507,0.805-0.87c0.14-0.27,0.222-0.554,0.23-0.86c0-0.018,0-0.035,0-0.058c-1.666,0-3.325,0-4.992,0
		c0.008-0.014,0.012-0.021,0.018-0.029c0.272-0.41,0.543-0.82,0.815-1.229c0.013-0.02,0.027-0.029,0.052-0.029
		c0.086,0.002,0.172,0.001,0.259,0.001c1.209,0,2.42,0,3.629,0c0.017,0,0.036,0,0.052,0c0-0.009,0.001-0.013,0-0.015
		c-0.001-0.008-0.004-0.015-0.008-0.022c-0.131-0.285-0.317-0.527-0.565-0.72c-0.237-0.184-0.503-0.306-0.788-0.39
		c-0.348-0.104-0.705-0.153-1.066-0.175c-0.26-0.016-0.52-0.025-0.782-0.027c-0.52-0.004-1.04-0.001-1.56-0.001
		c-0.016,0-0.034-0.001-0.059-0.002c0.025-0.035,0.042-0.063,0.062-0.092c0.264-0.397,0.529-0.796,0.793-1.194
		c2.793,0,5.586,0,8.38,0c-0.012,0.017-0.017,0.035-0.024,0.049c-0.266,0.399-0.533,0.799-0.799,1.198
		c-0.008,0.013-0.016,0.026-0.026,0.042c-0.739,0-1.482,0-2.231,0c0.172,0.196,0.306,0.404,0.413,0.631
		c0.106,0.229,0.182,0.468,0.231,0.717c0.108,0,0.21,0,0.312,0c0.099,0,0.198,0,0.3,0c0.103,0,0.204,0,0.306,0
		c0.099,0,0.201,0,0.301,0c0.101,0,0.202,0,0.305,0c0.102,0,0.204,0,0.306,0c0.099,0,0.2,0,0.3,0c0.103,0,0.204-0.001,0.313,0.001
		c-0.017,0.023-0.024,0.036-0.032,0.051c-0.266,0.398-0.53,0.796-0.796,1.195c-0.016,0.03-0.04,0.041-0.074,0.041
		c-0.487-0.001-0.973-0.001-1.458-0.001c-0.019,0-0.037,0-0.057,0c-0.002,0.016-0.004,0.028-0.004,0.038
		c-0.032,0.214-0.087,0.423-0.156,0.627c-0.201,0.579-0.539,1.063-0.997,1.468c-0.417,0.368-0.891,0.639-1.407,0.837
		c-0.558,0.214-1.138,0.332-1.732,0.37c-0.013,0-0.024,0.004-0.042,0.006c0.013,0.017,0.022,0.028,0.031,0.04
		c1.675,2.095,3.349,4.188,5.023,6.283C17.912,22.484,17.917,22.498,17.929,22.513z"/>
</g>
<path fill="#4A494A" d="M1.153,10.481c-2.5,7.649,1.632,15.896,9.283,18.396c7.65,2.501,15.917-1.69,18.417-9.34
	c2.501-7.653-1.693-15.917-9.342-18.418C11.859-1.381,3.654,2.83,1.153,10.481z M25.582,18.467
	c-1.917,5.859-8.195,8.995-14.057,7.082c-5.801-1.899-9.016-8.138-7.101-13.998c1.917-5.861,8.195-8.997,13.998-7.1
	C24.282,6.367,27.497,12.607,25.582,18.467z"/>
<path fill="#EFEB58" d="M9.707,3.074C6.837,4.345,4.431,6.632,3.078,9.667l0.457,0.149C4.827,6.92,7.118,4.725,9.847,3.481
	L9.707,3.074z"/>
<path fill="#FFFFFF" d="M2.128,17.251l0.447-0.129C2.31,15.592,2.34,14,2.682,12.424l-0.457-0.148
	C1.866,13.947,1.85,15.63,2.128,17.251z M7.958,25.505l-0.259,0.306c0.968,0.663,2.051,1.192,3.224,1.574
	c0.443,0.145,0.895,0.263,1.338,0.363l0.045-0.4c-0.417-0.096-0.843-0.206-1.259-0.341C9.925,26.639,8.896,26.13,7.958,25.505z
	 M22.076,25.442l0.214,0.404c1.371-0.922,2.579-2.1,3.528-3.507l-0.403-0.217C24.506,23.441,23.359,24.568,22.076,25.442z
	 M25.492,8.019c0.871,1.31,1.502,2.785,1.832,4.336l0.462-0.05c-0.359-1.634-1.02-3.191-1.956-4.566L25.492,8.019z M19.81,3.333
	c1.5,0.621,2.83,1.501,3.932,2.584l0.336-0.279c-1.177-1.122-2.563-2.05-4.157-2.687L19.81,3.333z M17.286,2.177
	c-1.675-0.304-3.357-0.275-4.956,0.067l0.119,0.386c1.516-0.312,3.117-0.353,4.725-0.058L17.286,2.177z M27.611,15.091
	c-0.014,1.28-0.214,2.555-0.632,3.832c-0.086,0.262-0.184,0.517-0.281,0.776l0.416,0.223c0.109-0.283,0.214-0.566,0.309-0.853
	c0.438-1.344,0.651-2.7,0.652-4.029L27.611,15.091z M15.04,27.634l-0.044,0.401c1.688,0.007,3.333-0.308,4.865-0.933l-0.193-0.38
	C18.206,27.31,16.645,27.623,15.04,27.634z M2.886,19.88c0.62,1.546,1.544,2.956,2.705,4.174l0.275-0.313
	c-1.096-1.151-1.967-2.504-2.539-3.977L2.886,19.88z"/>
</svg>
