<?xml version="1.0" encoding="utf-8"?>
<!-- Generator: Adobe Illustrator 16.0.0, SVG Export Plug-In . SVG Version: 6.00 Build 0)  -->
<!DOCTYPE svg PUBLIC "-//W3C//DTD SVG 1.1//EN" "http://www.w3.org/Graphics/SVG/1.1/DTD/svg11.dtd">
<svg version="1.1" id="Layer_1" xmlns="http://www.w3.org/2000/svg" xmlns:xlink="http://www.w3.org/1999/xlink" x="0px" y="0px"
	 width="35px" height="35px" viewBox="0 0 35 35" enable-background="new 0 0 35 35" xml:space="preserve">
<g>
	<path fill="#2ED0D8" d="M17.197,10.934c0,0.167,0.136,0.303,0.303,0.303s0.303-0.136,0.303-0.303v-3.52
		c0-0.167-0.136-0.303-0.303-0.303s-0.303,0.136-0.303,0.303V10.934z"/>
</g>
<circle fill="#FF3636" cx="17.5" cy="4.139" r="2.306"/>
<circle fill="#7BE240" cx="17.5" cy="29.861" r="2.307"/>
<g>
	<path fill="#2ED0D8" d="M17.197,15.934c0,0.167,0.136,0.303,0.303,0.303s0.303-0.136,0.303-0.303v-3.52
		c0-0.167-0.136-0.303-0.303-0.303s-0.303,0.136-0.303,0.303V15.934z"/>
</g>
<g>
	<path fill="#2ED0D8" d="M17.197,20.934c0,0.167,0.136,0.303,0.303,0.303s0.303-0.136,0.303-0.303v-3.52
		c0-0.168-0.136-0.303-0.303-0.303s-0.303,0.135-0.303,0.303V20.934z"/>
</g>
<g>
	<path fill="#2ED0D8" d="M17.197,25.934c0,0.167,0.136,0.303,0.303,0.303s0.303-0.136,0.303-0.303v-3.52
		c0-0.168-0.136-0.303-0.303-0.303s-0.303,0.135-0.303,0.303V25.934z"/>
</g>
</svg>
