<?xml version="1.0" encoding="utf-8"?>
<!-- Generator: Adobe Illustrator 16.0.0, SVG Export Plug-In . SVG Version: 6.00 Build 0)  -->
<!DOCTYPE svg PUBLIC "-//W3C//DTD SVG 1.1//EN" "http://www.w3.org/Graphics/SVG/1.1/DTD/svg11.dtd">
<svg version="1.1" id="Layer_1" xmlns="http://www.w3.org/2000/svg" xmlns:xlink="http://www.w3.org/1999/xlink" x="0px" y="0px"
	 width="50px" height="50px" viewBox="0 0 50 50" enable-background="new 0 0 50 50" xml:space="preserve">
<g>
	<circle fill="#FFFFFF" cx="24.846" cy="24.431" r="17.748"/>
	<path fill="#3F403F" stroke="#FFFFFF" stroke-width="2" stroke-miterlimit="10" d="M37.224,5.319
		c-10.648-6.754-24.757-3.596-31.51,7.054c-6.754,10.651-3.595,24.755,7.055,31.51c10.649,6.754,24.754,3.597,31.51-7.054
		C51.031,26.181,47.874,12.072,37.224,5.319z M15.435,39.678c-8.328-5.28-10.797-16.311-5.516-24.639
		c5.28-8.327,16.313-10.795,24.639-5.515c8.328,5.281,10.796,16.312,5.516,24.639C34.792,42.49,23.762,44.959,15.435,39.678z"/>
	<path fill="#88C544" d="M28.912,21.868c0,0-4.582-4.206-12.199-2.522c0,0,4.1-0.656,8.949,1.569c0,0-2.97,3.566-5.933,2.963
		s-7.466-4.641-11.537-3.002c0,0,11.494-10.022,17.948-0.883c0,0,2.508,0.875,3.363,1.432
		C29.503,21.423,29.572,22.042,28.912,21.868z"/>
	<path fill="#A5CE3E" d="M28.912,21.868c0,0-4.098-4.206-11.716-2.522c0,0-4.934-0.109-9.005,1.529c0,0,11.494-10.022,17.948-0.883
		c0,0,2.508,0.875,3.363,1.432C29.503,21.423,29.572,22.042,28.912,21.868z"/>
	<path fill="#88C544" d="M20.686,23.012c0,0-1.353,6.069,3.914,11.825c0,0-2.617-3.223-3.115-8.535c0,0,4.575,0.789,5.534,3.657
		c0.959,2.867-0.287,8.785,3.168,11.492c0,0-14.426-4.943-9.739-15.102c0,0-0.497-2.609-0.442-3.628
		C20.004,22.721,20.506,22.351,20.686,23.012z"/>
	<path fill="#A5CE3E" d="M20.686,23.012c0,0-1.594,5.65,3.673,11.405c0,0,2.372,4.327,5.827,7.034c0,0-14.426-4.943-9.739-15.102
		c0,0-0.497-2.609-0.442-3.628C20.004,22.721,20.506,22.351,20.686,23.012z"/>
	<path fill="#88C544" d="M25.789,29.563c0,0,5.933-1.863,8.284-9.303c0,0-1.482,3.877-5.834,6.965c0,0-1.603-4.355,0.401-6.62
		c2.003-2.264,7.752-4.146,8.368-8.49c0,0,2.932,14.965-8.209,15.985c0,0-2.011,1.735-2.922,2.195
		C25.876,30.297,25.307,30.048,25.789,29.563z"/>
	<path fill="#A5CE3E" d="M25.789,29.563c0,0,5.692-1.446,8.042-8.884c0,0,2.562-4.219,3.178-8.563c0,0,2.932,14.965-8.209,15.985
		c0,0-2.011,1.735-2.922,2.195C25.876,30.297,25.307,30.048,25.789,29.563z"/>
	<circle fill="#FFFFFF" stroke="#3A3A3A" stroke-width="2" stroke-miterlimit="10" cx="25.128" cy="24.814" r="8.639"/>
</g>
</svg>
