<?xml version="1.0" encoding="utf-8"?>
<!-- Generator: Adobe Illustrator 16.0.0, SVG Export Plug-In . SVG Version: 6.00 Build 0)  -->
<!DOCTYPE svg PUBLIC "-//W3C//DTD SVG 1.1//EN" "http://www.w3.org/Graphics/SVG/1.1/DTD/svg11.dtd">
<svg version="1.1" id="Layer_1" xmlns="http://www.w3.org/2000/svg" xmlns:xlink="http://www.w3.org/1999/xlink" x="0px" y="0px"
	 width="35px" height="35px" viewBox="0 0 35 35" enable-background="new 0 0 35 35" xml:space="preserve">
<path fill="#F4D62D" d="M32.73,9.667c-0.196-0.393-0.407-0.772-0.646-1.137c0-0.014-0.014-0.042-0.027-0.056
	c-0.069-0.112-0.141-0.224-0.211-0.323c-0.927-1.432-2.063-2.709-3.368-3.79v1.053c0,0.435-0.337,0.8-0.758,0.8h-1.419
	c-0.421,0-0.757-0.365-0.757-0.8V2.845c0-0.141,0.041-0.267,0.111-0.379c-0.322-0.182-0.646-0.351-0.981-0.505
	c-0.295-0.141-0.604-0.267-0.899-0.394c-0.968-0.379-1.993-0.688-3.032-0.884c-0.352-0.07-0.716-0.126-1.066-0.168
	c-0.112-0.014-0.21-0.028-0.322-0.028c-0.604-0.084-1.222-0.112-1.854-0.112c-0.646,0-1.292,0.042-1.923,0.112
	c-1.881,0.197-3.678,0.716-5.32,1.502c-0.308,0.14-0.618,0.309-0.912,0.477H9.331C9.4,2.578,9.428,2.705,9.428,2.845v2.554
	c0,0.436-0.323,0.801-0.73,0.801H7.281c-0.407,0-0.73-0.365-0.73-0.801V4.333C5.231,5.428,4.08,6.705,3.153,8.151
	c-0.07,0.099-0.14,0.211-0.21,0.323C2.929,8.488,2.915,8.516,2.915,8.53C2.676,8.895,2.466,9.274,2.269,9.667
	c-1.207,2.344-1.895,4.998-1.895,7.833c0,2.821,0.674,5.489,1.895,7.833c0.169,0.322,0.351,0.646,0.533,0.954
	c1.236,2.078,2.906,3.874,4.885,5.25c0.253,0.183,0.52,0.352,0.786,0.506c2.625,1.628,5.714,2.583,9.026,2.583
	c0.112,0,0.239,0,0.351-0.014c3.186-0.057,6.148-0.997,8.674-2.569c0.268-0.154,0.533-0.323,0.787-0.506
	c1.979-1.376,3.649-3.172,4.885-5.25c0.182-0.309,0.365-0.632,0.533-0.954c1.221-2.344,1.896-5.012,1.896-7.833
	C34.626,14.665,33.938,12.011,32.73,9.667z M28.31,27.438H8.909V10.65H28.31V27.438z"/>
<path fill="#3A3B3B" d="M32.084,8.53H2.915c0-0.014,0.014-0.042,0.028-0.056c0.071-0.112,0.141-0.224,0.21-0.323
	C4.08,6.705,5.231,5.428,6.551,4.333v1.066c0,0.436,0.323,0.801,0.73,0.801h1.417c0.407,0,0.73-0.365,0.73-0.801V2.845
	c0-0.141-0.028-0.267-0.098-0.379h0.014c0.294-0.168,0.604-0.337,0.912-0.477c1.643-0.786,3.439-1.306,5.32-1.502
	c0.632-0.07,1.278-0.112,1.923-0.112c0.632,0,1.249,0.028,1.854,0.112c0.112,0,0.21,0.015,0.322,0.028
	c0.351,0.042,0.715,0.099,1.066,0.168c1.039,0.197,2.064,0.505,3.032,0.884c0.295,0.127,0.604,0.253,0.899,0.394
	c0.336,0.154,0.659,0.323,0.981,0.505c-0.07,0.112-0.111,0.239-0.111,0.379v2.569c0,0.435,0.336,0.8,0.757,0.8h1.419
	c0.421,0,0.758-0.365,0.758-0.8V4.361c1.306,1.081,2.441,2.357,3.368,3.79c0.07,0.099,0.142,0.211,0.211,0.323
	C32.07,8.488,32.084,8.516,32.084,8.53z"/>
<g id="Layer_1_1_">
	<g>
		<path fill="#F4D62D" d="M32.084,8.53H2.915C2.676,8.895,2.466,9.274,2.269,9.667v15.666c0.169,0.322,0.351,0.646,0.533,0.954
			c1.236,2.078,2.906,3.874,4.885,5.25c0.253,0.183,0.52,0.352,0.786,0.506h18.052c0.268-0.154,0.533-0.323,0.787-0.506
			c1.979-1.376,3.649-3.172,4.885-5.25c0.182-0.309,0.365-0.632,0.533-0.954V9.667C32.534,9.274,32.323,8.895,32.084,8.53z
			 M11.772,23.27v-0.015c-0.112-0.098-0.21-0.196-0.28-0.322c-0.225-0.268-0.379-0.562-0.491-0.87
			c-0.042-0.07-0.071-0.141-0.084-0.212c0-0.041-0.014-0.069-0.028-0.112c-0.042-0.14-0.07-0.266-0.084-0.421
			c-0.014-0.014-0.014-0.014-0.014-0.014c-0.028-0.182-0.056-0.364-0.071-0.562h2.008c0.084,0.562,0.267,0.955,0.561,1.236
			c0.295,0.252,0.674,0.393,1.123,0.393c0.478,0,0.856-0.154,1.165-0.464c0.309-0.295,0.463-0.659,0.463-1.094
			c0-0.492-0.21-0.885-0.632-1.222c-0.407-0.337-1.01-0.506-1.796-0.52v-1.713c0.491-0.042,0.842-0.112,1.081-0.238
			c0.239-0.098,0.421-0.253,0.562-0.449c0.127-0.197,0.197-0.407,0.197-0.617c0-0.296-0.112-0.534-0.309-0.73
			c-0.098-0.084-0.21-0.155-0.323-0.211c-0.14-0.042-0.295-0.07-0.463-0.07c-0.295,0-0.547,0.084-0.786,0.267
			c-0.225,0.168-0.407,0.394-0.492,0.674h-1.923c0.098-0.786,0.379-1.404,0.842-1.881c0.646-0.674,1.46-0.983,2.428-0.983
			c0.141,0,0.295,0,0.436,0.015c0.14,0.014,0.267,0.042,0.393,0.084c0.112,0.014,0.21,0.042,0.309,0.083
			c0.141,0.042,0.295,0.113,0.421,0.197l0.042,0.015l0.379,0.252l0.014,0.015c0.07,0.042,0.126,0.098,0.183,0.154
			c0.589,0.547,0.87,1.207,0.87,1.965c0,0.463-0.112,0.899-0.379,1.292c-0.253,0.379-0.618,0.702-1.109,0.926
			c0.632,0.197,1.137,0.534,1.502,1.012c0.351,0.477,0.547,1.039,0.547,1.685c0,0.954-0.365,1.755-1.066,2.414
			c-0.688,0.659-1.572,0.996-2.667,0.996c-1.025,0-1.854-0.323-2.499-0.94C11.787,23.27,11.772,23.27,11.772,23.27z M19.788,15.254
			l1.165-1.881h3.019v10.57h-1.993v-8.689H19.788z"/>
		<path fill="#F4D62D" d="M32.084,8.53H2.915C2.676,8.895,2.466,9.274,2.269,9.667v15.666c0.169,0.322,0.351,0.646,0.533,0.954
			c1.236,2.078,2.906,3.874,4.885,5.25c0.253,0.183,0.52,0.352,0.786,0.506h18.052c0.268-0.154,0.533-0.323,0.787-0.506
			c1.979-1.376,3.649-3.172,4.885-5.25c0.182-0.309,0.365-0.632,0.533-0.954V9.667C32.534,9.274,32.323,8.895,32.084,8.53z
			 M11.772,23.27v-0.015c-0.112-0.098-0.21-0.196-0.28-0.322c-0.225-0.268-0.379-0.562-0.491-0.87
			c-0.042-0.07-0.071-0.141-0.084-0.212c0-0.041-0.014-0.069-0.028-0.112c-0.042-0.14-0.07-0.266-0.084-0.421
			c-0.014-0.014-0.014-0.014-0.014-0.014c-0.028-0.182-0.056-0.364-0.071-0.562h2.008c0.084,0.562,0.267,0.955,0.561,1.236
			c0.295,0.252,0.674,0.393,1.123,0.393c0.478,0,0.856-0.154,1.165-0.464c0.309-0.295,0.463-0.659,0.463-1.094
			c0-0.492-0.21-0.885-0.632-1.222c-0.407-0.337-1.01-0.506-1.796-0.52v-1.713c0.491-0.042,0.842-0.112,1.081-0.238
			c0.239-0.098,0.421-0.253,0.562-0.449c0.127-0.197,0.197-0.407,0.197-0.617c0-0.296-0.112-0.534-0.309-0.73
			c-0.098-0.084-0.21-0.155-0.323-0.211c-0.14-0.042-0.295-0.07-0.463-0.07c-0.295,0-0.547,0.084-0.786,0.267
			c-0.225,0.168-0.407,0.394-0.492,0.674h-1.923c0.098-0.786,0.379-1.404,0.842-1.881c0.646-0.674,1.46-0.983,2.428-0.983
			c0.141,0,0.295,0,0.436,0.015c0.14,0.014,0.267,0.042,0.393,0.084c0.112,0.014,0.21,0.042,0.309,0.083
			c0.141,0.042,0.295,0.113,0.421,0.197l0.042,0.015l0.379,0.252l0.014,0.015c0.07,0.042,0.126,0.098,0.183,0.154
			c0.589,0.547,0.87,1.207,0.87,1.965c0,0.463-0.112,0.899-0.379,1.292c-0.253,0.379-0.618,0.702-1.109,0.926
			c0.632,0.197,1.137,0.534,1.502,1.012c0.351,0.477,0.547,1.039,0.547,1.685c0,0.954-0.365,1.755-1.066,2.414
			c-0.688,0.659-1.572,0.996-2.667,0.996c-1.025,0-1.854-0.323-2.499-0.94C11.787,23.27,11.772,23.27,11.772,23.27z M19.788,15.254
			l1.165-1.881h3.019v10.57h-1.993v-8.689H19.788z"/>
		<linearGradient id="SVGID_1_" gradientUnits="userSpaceOnUse" x1="28.4023" y1="16.1895" x2="13.7596" y2="31.1609">
			<stop  offset="0" style="stop-color:#F4D62D"/>
			<stop  offset="1" style="stop-color:#D8B829"/>
		</linearGradient>
		<path fill="url(#SVGID_1_)" d="M32.73,23.943v1.39c-0.168,0.322-0.352,0.646-0.533,0.954c-1.235,2.078-2.905,3.874-4.885,5.25
			c-0.254,0.183-0.52,0.352-0.787,0.506c-2.526,1.572-5.488,2.513-8.674,2.569c-0.449-0.787-0.927-1.657-1.417-2.569
			c-0.842-1.545-1.741-3.173-2.513-4.604c-1.222-2.261-2.148-4.028-2.148-4.169c0,0,0.015,0,0.028,0.014
			c0.646,0.617,1.474,0.94,2.499,0.94c1.095,0,1.979-0.337,2.667-0.996c0.702-0.659,1.066-1.46,1.066-2.414
			c0-0.646-0.196-1.208-0.547-1.685c-0.365-0.478-0.871-0.814-1.502-1.012c0.491-0.225,0.856-0.547,1.109-0.926
			c0.267-0.393,0.379-0.828,0.379-1.292c0-0.758-0.281-1.417-0.87-1.965c-0.056-0.056-0.113-0.113-0.183-0.154l5.56,3.733v6.43
			h2.007v-10.57l4.324,5.223L32.73,23.943z"/>
	</g>
	<path fill="#3A3B3B" d="M31.846,8.151H3.153C4.08,6.705,5.231,5.428,6.551,4.333v1.081c0,0.435,0.336,0.8,0.744,0.8h1.39
		c0.407,0,0.744-0.365,0.744-0.8h16.143c0,0.435,0.338,0.8,0.744,0.8h1.389c0.407,0,0.745-0.365,0.745-0.8V4.333
		C29.77,5.428,30.919,6.705,31.846,8.151z"/>
	<g>
		<path fill="#F4D62D" d="M9.288,2.985v2.302c0,0.394-0.295,0.716-0.66,0.716H7.351c-0.365,0-0.66-0.323-0.66-0.716V4.221
			c0.071-0.07,0.155-0.126,0.239-0.197c0.042-0.028,0.083-0.07,0.14-0.098C7.576,3.519,8.137,3.14,8.713,2.802
			c0.14-0.083,0.28-0.167,0.435-0.238C9.246,2.676,9.288,2.831,9.288,2.985z"/>
		<path fill="#F4D62D" d="M28.305,4.221v1.063c0,0.393-0.293,0.714-0.672,0.714h-1.246c-0.378,0-0.671-0.322-0.671-0.714v-2.28
			c0-0.168,0.056-0.322,0.141-0.434c0.152,0.071,0.308,0.154,0.462,0.252c0.559,0.335,1.105,0.7,1.608,1.105
			c0.056,0.027,0.099,0.069,0.141,0.097C28.15,4.095,28.235,4.151,28.305,4.221z"/>
	</g>
</g>
</svg>
