<?xml version="1.0" encoding="utf-8"?>
<!-- Generator: Adobe Illustrator 16.0.0, SVG Export Plug-In . SVG Version: 6.00 Build 0)  -->
<!DOCTYPE svg PUBLIC "-//W3C//DTD SVG 1.1//EN" "http://www.w3.org/Graphics/SVG/1.1/DTD/svg11.dtd">
<svg version="1.1" xmlns="http://www.w3.org/2000/svg" xmlns:xlink="http://www.w3.org/1999/xlink" x="0px" y="0px" width="35px"
	 height="35px" viewBox="0 0 35 35" enable-background="new 0 0 35 35" xml:space="preserve">
<g id="Layer_1">
	<path fill="#70CCDB" d="M34.58,17.48c0,0.01,0,0.01,0,0.02c0,7.36-4.63,13.63-11.17,16.04c-0.41,0.15-0.82,0.29-1.25,0.4
		c-0.03,0.01-0.05,0.02-0.08,0.02c-0.061,0.021-0.12,0.04-0.17,0.05c-0.05,0.021-0.101,0.03-0.15,0.04
		c-1.37,0.36-2.81,0.561-4.29,0.561c-9.44,0-17.1-7.67-17.1-17.11c0-9.44,7.66-17.11,17.1-17.11c8.52,0,15.56,6.22,16.879,14.34
		c0.011,0.06,0.021,0.12,0.03,0.18c0.061,0.38,0.11,0.77,0.14,1.16c0.021,0.23,0.03,0.46,0.04,0.69v0.01
		C34.58,17.01,34.58,17.24,34.58,17.48z"/>
	<path fill="#9DCB3C" d="M34.58,17.48c0,0.01,0,0.01,0,0.02c0,7.36-4.63,13.63-11.17,16.04c-0.41,0.15-0.82,0.29-1.25,0.4
		c-0.03,0.01-0.05,0.02-0.08,0.02c-0.061,0.021-0.12,0.04-0.17,0.05c-0.05,0.021-0.101,0.03-0.15,0.04
		c-1.37,0.36-2.81,0.561-4.29,0.561c-9.44,0-17.1-7.67-17.1-17.11c0-9.44,7.66-17.11,17.1-17.11c8.52,0,15.56,6.22,16.879,14.34
		c0.011,0.06,0.021,0.12,0.03,0.18c0.061,0.38,0.11,0.77,0.14,1.16c0.021,0.23,0.03,0.46,0.04,0.69v0.01
		C34.58,17.01,34.58,17.24,34.58,17.48z"/>
	<path display="none" fill="#FFFFFF" d="M34.58,17.5c0,7.36-4.63,13.63-11.17,16.04c-0.41,0.15-0.82,0.29-1.25,0.4l-4.68-5.75
		l4.91-19.46l11.96,6c0.011,0.06,0.021,0.12,0.03,0.18C34.52,15.75,34.58,16.62,34.58,17.5z"/>
</g>
<g id="Layer_2">
</g>
<g id="Layer_3">
	<linearGradient id="SVGID_1_" gradientUnits="userSpaceOnUse" x1="30.791" y1="10.2803" x2="15.278" y2="28.8247">
		<stop  offset="0" style="stop-color:#9DCB3B"/>
		<stop  offset="0.1855" style="stop-color:#99C43C"/>
		<stop  offset="0.5183" style="stop-color:#94BE3D"/>
		<stop  offset="0.9405" style="stop-color:#8AB23F"/>
		<stop  offset="1" style="stop-color:#88B03F"/>
	</linearGradient>
	<path fill="url(#SVGID_1_)" d="M34.58,17.48c0,0.01,0,0.01,0,0.02c0,7.36-4.63,13.63-11.17,16.04c-0.41,0.15-0.82,0.29-1.25,0.4
		c-0.03,0.01-0.05,0.02-0.08,0.02c-0.061,0.021-0.12,0.04-0.17,0.05L7.66,25.14l-1.37-0.85c-0.02-0.01-0.03-0.021-0.03-0.03
		l0.12-0.34c-0.56-4.229,1.8-3.35,2.98-2.68c0.37,0.21,0.62,0.399,0.62,0.399l0.26-0.14l5.64-3.11l3.69-2.04l5-2.75l0.859,0.14
		l0.65,0.1h0.02l0.091,0.02c-0.011-0.02-0.021-0.03-0.03-0.05c0-0.01-0.01-0.01-0.01-0.01c-0.381-0.62-0.641-1.14-0.811-1.58
		l-0.01-0.03c-0.021-0.05-0.04-0.09-0.05-0.14v-0.01c-1.141-3.36,3.66-1.77,4.05-1.64h0.01c0.01,0.01,0.021,0.01,0.021,0.01
		l5.199,6.35v0.01C34.58,17.01,34.58,17.24,34.58,17.48z"/>
	<g>
		<g>
			
				<linearGradient id="SVGID_2_" gradientUnits="userSpaceOnUse" x1="290.4307" y1="-384.0107" x2="297.7539" y2="-384.0107" gradientTransform="matrix(1 0 0 -1 -280.1602 -368.46)">
				<stop  offset="0" style="stop-color:#88B03F"/>
				<stop  offset="0.1376" style="stop-color:#8CB63F"/>
				<stop  offset="0.6255" style="stop-color:#9AC53C"/>
				<stop  offset="1" style="stop-color:#9DCB3B"/>
			</linearGradient>
			<path fill="url(#SVGID_2_)" d="M10.866,12.19c0,0-0.929,2.335-0.465,3.201c0.465,0.865,2.092,4.137,2.092,4.137l0.792-1.381
				l3.505-1.963l0.803-0.45l-3.068-3.541C14.526,12.19,12.013,10.806,10.866,12.19z"/>
			
				<linearGradient id="SVGID_3_" gradientUnits="userSpaceOnUse" x1="299.1963" y1="-380.5293" x2="303.6465" y2="-380.5293" gradientTransform="matrix(1 0 0 -1 -280.1602 -368.46)">
				<stop  offset="0" style="stop-color:#88B03F"/>
				<stop  offset="0.1376" style="stop-color:#8CB63F"/>
				<stop  offset="0.6255" style="stop-color:#9AC53C"/>
				<stop  offset="1" style="stop-color:#9DCB3B"/>
			</linearGradient>
			<path fill="url(#SVGID_3_)" d="M19.036,11.805c0,0,0.367-2.326,2.247-1.222l0.449,0.119l1.754,1.735l-2.536,1.416
				C20.948,13.853,19.598,13.666,19.036,11.805z"/>
		</g>
		
			<rect x="8.416" y="15.914" transform="matrix(-0.8724 0.4887 -0.4887 -0.8724 41.3294 23.543)" fill="#FFFFFF" width="18.353" height="2.503"/>
		
			<linearGradient id="SVGID_4_" gradientUnits="userSpaceOnUse" x1="289.1357" y1="-388.3774" x2="296.541" y2="-388.3774" gradientTransform="matrix(1 0 0 -1 -280.1602 -368.46)">
			<stop  offset="0" style="stop-color:#E2E2E2;stop-opacity:0.46"/>
			<stop  offset="0.0511" style="stop-color:#E4E4E4;stop-opacity:0.4876"/>
			<stop  offset="0.6155" style="stop-color:#F7F8F8;stop-opacity:0.7924"/>
			<stop  offset="1" style="stop-color:#FFFFFF"/>
		</linearGradient>
		<polygon fill="url(#SVGID_4_)" points="15.159,17.094 8.976,20.559 10.2,22.741 16.381,19.278 		"/>
		
			<linearGradient id="SVGID_5_" gradientUnits="userSpaceOnUse" x1="298.9951" y1="-382.8623" x2="306.4033" y2="-382.8623" gradientTransform="matrix(1 0 0 -1 -280.1602 -368.46)">
			<stop  offset="0" style="stop-color:#FFFFFF"/>
			<stop  offset="1" style="stop-color:#E2E2E2;stop-opacity:0.46"/>
		</linearGradient>
		<polygon fill="url(#SVGID_5_)" points="25.019,11.578 18.835,15.043 20.06,17.227 26.243,13.763 		"/>
		<path fill="#FFFFFF" d="M10.59,22.52c-0.03-0.369-0.15-0.71-0.35-1.02c-0.26-0.44-0.67-0.79-1.18-0.99
			c-0.07-0.029-0.14-0.06-0.22-0.08c-1.29-0.359-2.64,0.38-3,1.681c-0.21,0.77-0.04,1.56,0.42,2.149c0,0.01,0.01,0.021,0.03,0.03
			c0.29,0.38,0.72,0.68,1.23,0.82c0.05,0.01,0.09,0.02,0.14,0.029c1.25,0.28,2.51-0.47,2.86-1.71
			C10.61,23.13,10.63,22.82,10.59,22.52z M9.91,23.26c-0.27,0.96-1.26,1.5-2.21,1.24c-0.96-0.27-1.52-1.26-1.24-2.22
			c0.26-0.95,1.25-1.511,2.2-1.24c0.4,0.11,0.72,0.34,0.95,0.65c0,0,0,0,0.01,0.01c0.08,0.109,0.15,0.229,0.2,0.359
			C9.98,22.42,10.02,22.84,9.91,23.26z"/>
		<path fill="#FFFFFF" d="M29.34,10.4h-0.01c-0.32-0.52-0.83-0.91-1.46-1.09c-1.38-0.4-2.82,0.41-3.2,1.8
			c-0.07,0.24-0.1,0.48-0.1,0.71v0.01c0,0.74,0.319,1.43,0.859,1.91c0.11,0.1,0.23,0.19,0.36,0.26c0,0,0,0.01,0.01,0.01
			c0.2,0.13,0.41,0.23,0.65,0.29c1.39,0.39,2.819-0.4,3.21-1.79C29.87,11.76,29.73,11,29.34,10.4z M28.9,12.3
			c-0.28,0.95-1.271,1.51-2.221,1.24c-0.37-0.11-0.68-0.32-0.899-0.6c-0.04-0.04-0.08-0.09-0.11-0.14c-0.03-0.05-0.07-0.1-0.09-0.16
			c-0.05-0.08-0.09-0.17-0.12-0.26c0-0.01-0.01-0.02-0.01-0.02c0-0.01,0-0.01,0-0.02c-0.101-0.32-0.11-0.68-0.01-1.02
			c0.27-0.96,1.26-1.51,2.22-1.24C28.61,10.35,29.16,11.34,28.9,12.3z"/>
		<g>
			<path fill="#EF3D39" d="M12.45,13.05c-0.54,0-0.98,0.44-0.98,0.98c0,0.54,0.44,0.98,0.98,0.98c0.55,0,0.98-0.44,0.98-0.98
				C13.43,13.49,13,13.05,12.45,13.05z M12.45,13.05c-0.54,0-0.98,0.44-0.98,0.98c0,0.54,0.44,0.98,0.98,0.98
				c0.55,0,0.98-0.44,0.98-0.98C13.43,13.49,13,13.05,12.45,13.05z M12.45,13.05c-0.54,0-0.98,0.44-0.98,0.98
				c0,0.54,0.44,0.98,0.98,0.98c0.55,0,0.98-0.44,0.98-0.98C13.43,13.49,13,13.05,12.45,13.05z M12.45,13.05
				c-0.54,0-0.98,0.44-0.98,0.98c0,0.54,0.44,0.98,0.98,0.98c0.55,0,0.98-0.44,0.98-0.98C13.43,13.49,13,13.05,12.45,13.05z
				 M12.45,13.05c-0.54,0-0.98,0.44-0.98,0.98c0,0.54,0.44,0.98,0.98,0.98c0.55,0,0.98-0.44,0.98-0.98
				C13.43,13.49,13,13.05,12.45,13.05z M12.45,13.05c-0.54,0-0.98,0.44-0.98,0.98c0,0.54,0.44,0.98,0.98,0.98
				c0.55,0,0.98-0.44,0.98-0.98C13.43,13.49,13,13.05,12.45,13.05z M14.63,12.31c0-0.01-0.01-0.02-0.02-0.03
				c-0.03-0.04-0.06-0.07-0.09-0.1c-0.51-0.57-1.25-0.93-2.07-0.93c-1.53,0-2.77,1.24-2.77,2.78c0,0.55,0.16,1.06,0.44,1.5
				l1.95,3.291v0.01l0.38,0.63l0.04,0.07l0.79-1.38h0.01V18.14l1.5-2.61c0.14-0.22,0.25-0.46,0.32-0.71
				c0.08-0.25,0.12-0.52,0.12-0.79C15.23,13.37,15.01,12.78,14.63,12.31z M12.45,15.99c-1.08,0-1.96-0.88-1.96-1.96
				c0-1.09,0.88-1.97,1.96-1.97c1.09,0,1.97,0.88,1.97,1.97C14.42,15.11,13.54,15.99,12.45,15.99z M12.45,13.05
				c-0.54,0-0.98,0.44-0.98,0.98c0,0.54,0.44,0.98,0.98,0.98c0.55,0,0.98-0.44,0.98-0.98C13.43,13.49,13,13.05,12.45,13.05z
				 M12.45,13.05c-0.54,0-0.98,0.44-0.98,0.98c0,0.54,0.44,0.98,0.98,0.98c0.55,0,0.98-0.44,0.98-0.98
				C13.43,13.49,13,13.05,12.45,13.05z M12.45,13.05c-0.54,0-0.98,0.44-0.98,0.98c0,0.54,0.44,0.98,0.98,0.98
				c0.55,0,0.98-0.44,0.98-0.98C13.43,13.49,13,13.05,12.45,13.05z M12.45,13.05c-0.54,0-0.98,0.44-0.98,0.98
				c0,0.54,0.44,0.98,0.98,0.98c0.55,0,0.98-0.44,0.98-0.98C13.43,13.49,13,13.05,12.45,13.05z M12.45,13.05
				c-0.54,0-0.98,0.44-0.98,0.98c0,0.54,0.44,0.98,0.98,0.98c0.55,0,0.98-0.44,0.98-0.98C13.43,13.49,13,13.05,12.45,13.05z
				 M12.45,13.05c-0.54,0-0.98,0.44-0.98,0.98c0,0.54,0.44,0.98,0.98,0.98c0.55,0,0.98-0.44,0.98-0.98
				C13.43,13.49,13,13.05,12.45,13.05z M12.45,13.05c-0.54,0-0.98,0.44-0.98,0.98c0,0.54,0.44,0.98,0.98,0.98
				c0.55,0,0.98-0.44,0.98-0.98C13.43,13.49,13,13.05,12.45,13.05z"/>
			<path fill="#EF3D39" d="M20.42,11.03c-0.04,0-0.08,0-0.11,0.01c-0.079,0.02-0.14,0.05-0.199,0.09
				c-0.03,0.02-0.061,0.04-0.091,0.07c-0.1,0.1-0.159,0.24-0.159,0.39c0,0.31,0.25,0.56,0.56,0.56c0.311,0,0.561-0.25,0.561-0.56
				S20.73,11.03,20.42,11.03z M20.42,11.03c-0.04,0-0.08,0-0.11,0.01c-0.079,0.02-0.14,0.05-0.199,0.09
				c-0.03,0.02-0.061,0.04-0.091,0.07c-0.1,0.1-0.159,0.24-0.159,0.39c0,0.31,0.25,0.56,0.56,0.56c0.311,0,0.561-0.25,0.561-0.56
				S20.73,11.03,20.42,11.03z M20.42,11.03c-0.04,0-0.08,0-0.11,0.01c-0.079,0.02-0.14,0.05-0.199,0.09
				c-0.03,0.02-0.061,0.04-0.091,0.07c-0.1,0.1-0.159,0.24-0.159,0.39c0,0.31,0.25,0.56,0.56,0.56c0.311,0,0.561-0.25,0.561-0.56
				S20.73,11.03,20.42,11.03z M20.42,11.03c-0.04,0-0.08,0-0.11,0.01c-0.079,0.02-0.14,0.05-0.199,0.09
				c-0.03,0.02-0.061,0.04-0.091,0.07c-0.1,0.1-0.159,0.24-0.159,0.39c0,0.31,0.25,0.56,0.56,0.56c0.311,0,0.561-0.25,0.561-0.56
				S20.73,11.03,20.42,11.03z M20.42,11.03c-0.04,0-0.08,0-0.11,0.01c-0.079,0.02-0.14,0.05-0.199,0.09
				c-0.03,0.02-0.061,0.04-0.091,0.07c-0.1,0.1-0.159,0.24-0.159,0.39c0,0.31,0.25,0.56,0.56,0.56c0.311,0,0.561-0.25,0.561-0.56
				S20.73,11.03,20.42,11.03z M20.42,11.03c-0.04,0-0.08,0-0.11,0.01c-0.079,0.02-0.14,0.05-0.199,0.09
				c-0.03,0.02-0.061,0.04-0.091,0.07c-0.1,0.1-0.159,0.24-0.159,0.39c0,0.31,0.25,0.56,0.56,0.56c0.311,0,0.561-0.25,0.561-0.56
				S20.73,11.03,20.42,11.03z M21.74,10.71c0-0.01-0.01-0.01-0.01-0.01c-0.28-0.42-0.761-0.69-1.311-0.69
				c-0.87,0-1.58,0.71-1.58,1.58c0,0.32,0.09,0.61,0.25,0.86l1.09,1.84l0.24,0.41l0.021,0.04l0.5-0.88h0.01v-0.01l0.8-1.4
				c0.08-0.12,0.15-0.26,0.19-0.4c0.04-0.15,0.069-0.3,0.069-0.46C22.01,11.26,21.91,10.96,21.74,10.71z M20.42,12.71
				c-0.62,0-1.12-0.5-1.12-1.12c0-0.61,0.5-1.12,1.12-1.12s1.12,0.51,1.12,1.12C21.54,12.21,21.04,12.71,20.42,12.71z M20.42,11.03
				c-0.04,0-0.08,0-0.11,0.01c-0.079,0.02-0.14,0.05-0.199,0.09c-0.03,0.02-0.061,0.04-0.091,0.07c-0.1,0.1-0.159,0.24-0.159,0.39
				c0,0.31,0.25,0.56,0.56,0.56c0.311,0,0.561-0.25,0.561-0.56S20.73,11.03,20.42,11.03z M20.42,11.03c-0.04,0-0.08,0-0.11,0.01
				c-0.079,0.02-0.14,0.05-0.199,0.09c-0.03,0.02-0.061,0.04-0.091,0.07c-0.1,0.1-0.159,0.24-0.159,0.39c0,0.31,0.25,0.56,0.56,0.56
				c0.311,0,0.561-0.25,0.561-0.56S20.73,11.03,20.42,11.03z M20.42,11.03c-0.04,0-0.08,0-0.11,0.01
				c-0.079,0.02-0.14,0.05-0.199,0.09c-0.03,0.02-0.061,0.04-0.091,0.07c-0.1,0.1-0.159,0.24-0.159,0.39c0,0.31,0.25,0.56,0.56,0.56
				c0.311,0,0.561-0.25,0.561-0.56S20.73,11.03,20.42,11.03z M20.42,11.03c-0.04,0-0.08,0-0.11,0.01
				c-0.079,0.02-0.14,0.05-0.199,0.09c-0.03,0.02-0.061,0.04-0.091,0.07c-0.1,0.1-0.159,0.24-0.159,0.39c0,0.31,0.25,0.56,0.56,0.56
				c0.311,0,0.561-0.25,0.561-0.56S20.73,11.03,20.42,11.03z M20.42,11.03c-0.04,0-0.08,0-0.11,0.01
				c-0.079,0.02-0.14,0.05-0.199,0.09c-0.03,0.02-0.061,0.04-0.091,0.07c-0.1,0.1-0.159,0.24-0.159,0.39c0,0.31,0.25,0.56,0.56,0.56
				c0.311,0,0.561-0.25,0.561-0.56S20.73,11.03,20.42,11.03z M20.42,11.03c-0.04,0-0.08,0-0.11,0.01
				c-0.079,0.02-0.14,0.05-0.199,0.09c-0.03,0.02-0.061,0.04-0.091,0.07c-0.1,0.1-0.159,0.24-0.159,0.39c0,0.31,0.25,0.56,0.56,0.56
				c0.311,0,0.561-0.25,0.561-0.56S20.73,11.03,20.42,11.03z M20.42,11.03c-0.04,0-0.08,0-0.11,0.01
				c-0.079,0.02-0.14,0.05-0.199,0.09c-0.03,0.02-0.061,0.04-0.091,0.07c-0.1,0.1-0.159,0.24-0.159,0.39c0,0.31,0.25,0.56,0.56,0.56
				c0.311,0,0.561-0.25,0.561-0.56S20.73,11.03,20.42,11.03z"/>
		</g>
	</g>
	
		<linearGradient id="SVGID_6_" gradientUnits="userSpaceOnUse" x1="299.3096" y1="-380.166" x2="299.3096" y2="-380.166" gradientTransform="matrix(1 0 0 -1 -280.1602 -368.46)">
		<stop  offset="0" style="stop-color:#88B03F"/>
		<stop  offset="0.1376" style="stop-color:#8CB63F"/>
		<stop  offset="0.6255" style="stop-color:#9AC53C"/>
		<stop  offset="1" style="stop-color:#9DCB3B"/>
	</linearGradient>
	<path fill="url(#SVGID_6_)" d="M19.149,11.706L19.149,11.706z"/>
</g>
</svg>
