<?xml version="1.0" encoding="utf-8"?>
<!-- Generator: Adobe Illustrator 16.0.0, SVG Export Plug-In . SVG Version: 6.00 Build 0)  -->
<!DOCTYPE svg PUBLIC "-//W3C//DTD SVG 1.1//EN" "http://www.w3.org/Graphics/SVG/1.1/DTD/svg11.dtd">
<svg version="1.1" xmlns="http://www.w3.org/2000/svg" xmlns:xlink="http://www.w3.org/1999/xlink" x="0px" y="0px" width="35px"
	 height="35px" viewBox="0 0 35 35" enable-background="new 0 0 35 35" xml:space="preserve">
<g id="Layer_1">
	<path fill="#70CCDB" d="M34.58,17.5c0,7.36-4.63,13.63-11.17,16.04c-0.41,0.15-0.82,0.29-1.25,0.4
		c-0.13,0.04-0.271,0.079-0.4,0.109c-1.37,0.36-2.81,0.561-4.29,0.561c-9.44,0-17.1-7.67-17.1-17.11c0-9.44,7.66-17.11,17.1-17.11
		c8.52,0,15.56,6.22,16.879,14.34c0.011,0.06,0.021,0.12,0.03,0.18c0.061,0.38,0.11,0.77,0.14,1.16
		C34.56,16.54,34.58,17.02,34.58,17.5z"/>
	<path fill="#F99F26" d="M34.58,17.5c0,7.36-4.63,13.63-11.17,16.04c-0.41,0.15-0.82,0.29-1.25,0.4
		c-0.13,0.04-0.271,0.079-0.4,0.109c-1.37,0.36-2.81,0.561-4.29,0.561c-9.44,0-17.1-7.67-17.1-17.11c0-9.44,7.66-17.11,17.1-17.11
		c8.52,0,15.56,6.22,16.879,14.34c0.011,0.06,0.021,0.12,0.03,0.18c0.061,0.38,0.11,0.77,0.14,1.16
		C34.56,16.54,34.58,17.02,34.58,17.5z"/>
	<path display="none" fill="#FFFFFF" d="M34.58,17.5c0,7.36-4.63,13.63-11.17,16.04c-0.41,0.15-0.82,0.29-1.25,0.4l-4.68-5.75
		l4.91-19.46l11.96,6c0.011,0.06,0.021,0.12,0.03,0.18C34.52,15.75,34.58,16.62,34.58,17.5z"/>
</g>
<g id="Layer_2">
</g>
<g id="Layer_3">
	<linearGradient id="SVGID_1_" gradientUnits="userSpaceOnUse" x1="18.2744" y1="18.9668" x2="36.0354" y2="29.9361">
		<stop  offset="0" style="stop-color:#DC8327"/>
		<stop  offset="0.2806" style="stop-color:#E89026"/>
		<stop  offset="0.6428" style="stop-color:#F49B26"/>
		<stop  offset="1" style="stop-color:#F99F26"/>
	</linearGradient>
	<path fill="url(#SVGID_1_)" d="M34.58,17.5c0,7.36-4.63,13.63-11.17,16.04c-0.41,0.15-0.82,0.29-1.25,0.4
		c-0.13,0.04-0.271,0.079-0.4,0.109l-4.27-4.899l2.17-12.21c1.41-0.73,2.37-2.2,2.37-3.9c0-1.14-0.44-2.18-1.16-2.95l0.38-2.13
		c0.09,0.05,0.18,0.1,0.26,0.16l13.01,7.95C34.56,16.54,34.58,17.02,34.58,17.5z"/>
	<path fill="#FFFFFF" d="M21.51,8.12c-0.08-0.06-0.17-0.11-0.26-0.16c-1.04-0.65-2.28-1.02-3.59-1.02c-3.81,0-6.9,3.09-6.9,6.9
		c0,1.01,0.22,1.96,0.62,2.82l-0.01,0.01l6.12,12.48L23.6,17.33l0.341-0.67c0.399-0.86,0.609-1.81,0.609-2.82
		C24.55,11.46,23.35,9.36,21.51,8.12z M19.66,16.94c-0.601,0.31-1.29,0.49-2.01,0.49c-2.42,0-4.37-1.97-4.37-4.39
		s1.95-4.37,4.37-4.37c1.28,0,2.43,0.54,3.22,1.42c0.72,0.77,1.16,1.81,1.16,2.95C22.03,14.74,21.07,16.21,19.66,16.94z"/>
</g>
</svg>
