<?xml version="1.0" encoding="utf-8"?>
<!-- Generator: Adobe Illustrator 16.0.0, SVG Export Plug-In . SVG Version: 6.00 Build 0)  -->
<!DOCTYPE svg PUBLIC "-//W3C//DTD SVG 1.1//EN" "http://www.w3.org/Graphics/SVG/1.1/DTD/svg11.dtd">
<svg version="1.1" id="Layer_1" xmlns="http://www.w3.org/2000/svg" xmlns:xlink="http://www.w3.org/1999/xlink" x="0px" y="0px"
	 width="35px" height="35px" viewBox="0 0 35 35" enable-background="new 0 0 35 35" xml:space="preserve">
<path fill="#F47751" d="M34.79,17.5c0,0.08,0,0.16-0.01,0.24c-0.03,2.779-0.721,5.41-1.931,7.72c-1.649,3.17-4.25,5.76-7.42,7.39
	c-1.439,0.761-3.01,1.311-4.66,1.62c-1.06,0.2-2.149,0.311-3.27,0.311c-2.85,0-5.55-0.69-7.92-1.931
	c-3.19-1.64-5.79-4.239-7.43-7.43c-1.24-2.37-1.93-5.07-1.93-7.92c0-2.85,0.69-5.55,1.93-7.92c1.64-3.19,4.24-5.79,7.43-7.43
	c2.37-1.24,5.07-1.93,7.92-1.93c2.86,0,5.56,0.69,7.93,1.93c3.17,1.63,5.771,4.22,7.42,7.39C34.09,11.92,34.79,14.63,34.79,17.5z"/>
<g id="Layer_1_1_">
	<path fill="#F47751" d="M32.85,9.54v15.92c-1.649,3.17-4.25,5.76-7.42,7.39H9.58c-3.19-1.64-5.79-4.239-7.43-7.43V9.58
		c1.64-3.19,4.24-5.79,7.43-7.43h15.85C28.6,3.78,31.2,6.37,32.85,9.54z"/>
	<path fill="#D74F28" d="M34.78,17.74c-0.03,2.779-0.721,5.41-1.931,7.72c-1.649,3.17-4.25,5.76-7.42,7.39
		c-1.439,0.761-3.01,1.311-4.66,1.62l-1.72-1.62l-2.2-2.08c-0.01,0-0.02-0.01-0.03-0.02l-0.38-5.94l1.5-5.34l0.32-1.13l0.07-0.25
		l0.09-0.31L7.47,6.83l11.209,7.75l1.15,0.8l6.479-5.62l0.03-0.02l6.51,6.17L34.78,17.74z"/>
	<path fill="#FFFFFF" d="M26.048,10.558c0.312-0.311,0.384-0.744,0.162-0.966L25.338,8.72c-0.221-0.222-0.654-0.15-0.966,0.162
		l-7.276,7.276c-0.311,0.311-0.384,0.744-0.162,0.966l0.872,0.873c0.222,0.221,0.655,0.148,0.967-0.162L26.048,10.558z"/>
	<path fill="#FFFFFF" d="M16.438,29.821c0,0.53,0.228,0.964,0.51,0.964h1.108c0.282,0,0.511-0.43,0.511-0.961V17.423
		c0-0.532-0.229-0.963-0.511-0.963h-1.108c-0.28,0.001-0.509,0.431-0.51,0.961V29.821z"/>
	<circle fill="#EAEAEA" cx="17.5" cy="17.5" r="2.016"/>
	<path fill="#EAEAEA" d="M21.585,21.663c0.136,0.136,0.325,0.167,0.427,0.068l0,0c0.098-0.102,0.069-0.294-0.066-0.427L7.471,6.83
		C7.335,6.694,7.145,6.665,7.045,6.764l0,0c-0.1,0.1-0.071,0.29,0.065,0.426L21.585,21.663z"/>
</g>
</svg>
