<?xml version="1.0" encoding="utf-8"?>
<!-- Generator: Adobe Illustrator 16.0.0, SVG Export Plug-In . SVG Version: 6.00 Build 0)  -->
<!DOCTYPE svg PUBLIC "-//W3C//DTD SVG 1.1//EN" "http://www.w3.org/Graphics/SVG/1.1/DTD/svg11.dtd">
<svg version="1.1" id="Layer_1" xmlns="http://www.w3.org/2000/svg" xmlns:xlink="http://www.w3.org/1999/xlink" x="0px" y="0px"
	 width="35px" height="35px" viewBox="0 0 35 35" enable-background="new 0 0 35 35" xml:space="preserve">
<path fill="#70CCDB" d="M34.578,17.5c0,7.357-4.631,13.632-11.164,16.04c-1.843,0.686-3.854,1.066-5.941,1.066
	c-9.444,0-17.105-7.662-17.105-17.106c0-9.443,7.661-17.105,17.105-17.105c8.574,0,15.658,6.306,16.907,14.516
	C34.517,15.748,34.578,16.617,34.578,17.5z"/>
<path fill="#31BCAB" d="M34.578,17.5c0,7.357-4.631,13.632-11.164,16.04c-1.843,0.686-3.854,1.066-5.941,1.066
	c-9.444,0-17.105-7.662-17.105-17.106c0-9.443,7.661-17.105,17.105-17.105c8.574,0,15.658,6.306,16.907,14.516
	C34.517,15.748,34.578,16.617,34.578,17.5z"/>
<linearGradient id="SVGID_1_" gradientUnits="userSpaceOnUse" x1="13.3896" y1="20.8887" x2="34.5781" y2="20.8887">
	<stop  offset="0" style="stop-color:#1A8E7D"/>
	<stop  offset="0.1205" style="stop-color:#1F9684"/>
	<stop  offset="0.4609" style="stop-color:#2AA897"/>
	<stop  offset="0.7648" style="stop-color:#31B5A5"/>
	<stop  offset="1" style="stop-color:#31BCAB"/>
</linearGradient>
<path fill="url(#SVGID_1_)" d="M34.578,17.5c0,7.357-4.631,13.632-11.164,16.04l-4.829-4.615c-0.018-0.016-0.018-0.045-0.032-0.061
	L13.39,18.551l4.783-1.569c4.189-4.356,0.412-7.57,0.412-7.57l5.848-1.172l9.947,6.671C34.517,15.748,34.578,16.617,34.578,17.5z"/>
<g>
	<path fill="#FFFFFF" d="M21.935,28.928c-1.114,0-2.229,0-3.343,0c-0.017-0.025-0.021-0.047-0.039-0.068
		c-1.201-1.503-2.402-3.008-3.605-4.515c-1.263-1.58-2.522-3.158-3.789-4.739c-0.029-0.034-0.042-0.071-0.042-0.123
		c0.001-0.557,0-1.119,0-1.681c0-0.026,0-0.052,0-0.077c0.025-0.005,0.046-0.005,0.068-0.005c0.479,0,0.952,0,1.432,0
		c0.428,0,0.857,0.005,1.29-0.041c0.357-0.039,0.71-0.096,1.059-0.186c0.524-0.136,1.021-0.336,1.473-0.634
		c0.52-0.338,0.937-0.772,1.226-1.325c0.213-0.411,0.339-0.843,0.351-1.31c0-0.028,0-0.054,0-0.089c-2.537,0-5.064,0-7.603,0
		c0.012-0.021,0.018-0.031,0.027-0.044c0.414-0.625,0.828-1.248,1.241-1.871c0.02-0.031,0.042-0.044,0.08-0.044
		c0.131,0.003,0.262,0.002,0.394,0.002c1.842,0,3.686,0,5.529,0c0.024,0,0.054,0,0.078,0c0-0.015,0.001-0.021,0-0.023
		c-0.001-0.012-0.005-0.023-0.012-0.033c-0.2-0.435-0.483-0.803-0.86-1.097c-0.361-0.28-0.766-0.465-1.201-0.593
		c-0.53-0.158-1.073-0.234-1.623-0.267c-0.396-0.023-0.792-0.038-1.191-0.042c-0.792-0.005-1.585,0-2.376,0
		c-0.025,0-0.052-0.002-0.09-0.003c0.038-0.054,0.064-0.096,0.094-0.141c0.403-0.604,0.806-1.212,1.208-1.818
		c4.254,0,8.508,0,12.764,0c-0.019,0.026-0.025,0.053-0.036,0.074c-0.404,0.609-0.813,1.217-1.218,1.825
		c-0.011,0.02-0.024,0.039-0.039,0.063c-1.125,0-2.257,0-3.398,0c0.261,0.299,0.468,0.616,0.631,0.961
		c0.16,0.349,0.276,0.714,0.352,1.093c0.163,0,0.318,0,0.476,0c0.148,0,0.301,0,0.455,0c0.158,0,0.312,0,0.467,0
		c0.15,0,0.307,0,0.459,0c0.154,0,0.307,0,0.463,0c0.157,0,0.313,0,0.468,0c0.149,0,0.304,0,0.455,0
		c0.158,0,0.312-0.002,0.479,0.002c-0.027,0.035-0.037,0.054-0.052,0.077c-0.403,0.606-0.805,1.212-1.209,1.821
		c-0.026,0.045-0.063,0.063-0.113,0.063c-0.743-0.003-1.48-0.003-2.222-0.003c-0.027,0-0.056,0-0.087,0
		c-0.003,0.025-0.007,0.043-0.007,0.058c-0.046,0.327-0.13,0.646-0.237,0.955c-0.305,0.883-0.821,1.62-1.517,2.236
		c-0.638,0.561-1.358,0.975-2.145,1.274c-0.85,0.328-1.734,0.506-2.638,0.566c-0.021,0-0.036,0.004-0.064,0.008
		c0.019,0.026,0.033,0.042,0.047,0.06c2.552,3.191,5.102,6.381,7.652,9.57C21.908,28.885,21.916,28.904,21.935,28.928z"/>
</g>
</svg>
