<?xml version="1.0" encoding="utf-8"?>
<!-- Generator: Adobe Illustrator 16.0.0, SVG Export Plug-In . SVG Version: 6.00 Build 0)  -->
<!DOCTYPE svg PUBLIC "-//W3C//DTD SVG 1.1//EN" "http://www.w3.org/Graphics/SVG/1.1/DTD/svg11.dtd">
<svg version="1.1" id="Layer_1" xmlns="http://www.w3.org/2000/svg" xmlns:xlink="http://www.w3.org/1999/xlink" x="0px" y="0px"
	 width="50px" height="50px" viewBox="0 0 50 50" enable-background="new 0 0 50 50" xml:space="preserve">
<g>
	<circle fill="#FFFFFF" cx="25.188" cy="24.636" r="11.674"/>
	<g>
		<path fill="#88C544" d="M26.54,25.828c0,0,2.379-2.588,1.427-6.896c0,0,0.37,2.318-0.887,5.06c0,0-2.019-1.679-1.676-3.355
			c0.34-1.674,2.624-4.22,1.698-6.521c0,0,5.665,6.499,0.499,10.146c0,0-0.493,1.419-0.81,1.902
			C26.793,26.164,26.442,26.202,26.54,25.828z"/>
		<path fill="#C3E557" d="M26.54,25.828c0,0,1.418-0.722,1.426-6.622c0,0,0.062-2.789-0.863-5.091c0,0,5.664,6.498,0.499,10.146
			c0,0-0.495,1.418-0.811,1.901C26.793,26.164,26.442,26.202,26.54,25.828z"/>
		<path fill="#88C544" d="M24.895,22.695c0,0-3.432-0.766-6.686,2.212c0,0,1.823-1.479,4.825-1.761c0,0-0.446,2.588-2.068,3.129
			c-1.62,0.542-4.967-0.162-6.497,1.792c0,0,2.795-8.156,8.537-5.506c0,0,1.476-0.282,2.052-0.25
			C25.059,22.31,25.268,22.593,24.895,22.695z"/>
		<path fill="#C3E557" d="M24.895,22.695c0,0-1.334-0.867-6.448,2.077c0,0-2.447,1.34-3.977,3.293c0,0,2.795-8.154,8.537-5.505
			c0,0,1.476-0.281,2.052-0.25C25.059,22.31,25.268,22.593,24.895,22.695z"/>
		<path fill="#88C544" d="M23.004,25.688c0,0,1.053,3.354,5.259,4.684c0,0-2.192-0.839-3.938-3.299c0,0,2.463-0.908,3.744,0.226
			c1.28,1.133,2.343,4.382,4.8,4.731c0,0-8.461,1.657-9.037-4.642c0,0-0.982-1.138-1.243-1.651
			C22.587,25.737,22.729,25.415,23.004,25.688z"/>
		<path fill="#C3E557" d="M23.004,25.688c0,0-0.084,1.589,5.021,4.545c0,0,2.385,1.449,4.841,1.797c0,0-8.46,1.657-9.036-4.641
			c0,0-0.981-1.138-1.242-1.652C22.587,25.737,22.729,25.415,23.004,25.688z"/>
	</g>
</g>
<path fill="none" stroke="#C3E557" stroke-width="4" stroke-miterlimit="10" d="M31.569,37.641
	c7.123-3.732,9.882-12.527,6.149-19.659c-3.732-7.125-12.529-9.881-19.655-6.15c-7.131,3.726-9.887,12.529-6.155,19.653
	C15.635,38.617,24.436,41.373,31.569,37.641z M12.438,31.211c-3.579-6.837-0.936-15.277,5.901-18.85
	c6.838-3.578,15.271-0.938,18.851,5.894c3.579,6.845,0.938,15.278-5.895,18.856C24.449,40.69,16.011,38.049,12.438,31.211z"/>
<g>
	<path fill="#4A494A" d="M9.066,19.496c-2.843,8.699,1.856,18.077,10.557,20.921c8.7,2.844,18.102-1.922,20.945-10.622
		c2.843-8.703-1.926-18.101-10.624-20.945C21.242,6.007,11.91,10.796,9.066,19.496z M36.848,28.578
		c-2.18,6.664-9.32,10.229-15.985,8.054c-6.597-2.159-10.254-9.254-8.076-15.918c2.18-6.665,9.32-10.231,15.919-8.074
		C35.369,14.818,39.025,21.915,36.848,28.578z"/>
	<path fill="#EFEB58" d="M18.794,11.074c-3.264,1.445-6,4.046-7.539,7.498l0.52,0.17c1.47-3.294,4.075-5.79,7.179-7.205
		L18.794,11.074z"/>
	<path fill="#FFFFFF" d="M10.175,27.196l0.508-0.147c-0.301-1.74-0.268-3.55,0.122-5.343l-0.52-0.168
		C9.877,23.439,9.859,25.353,10.175,27.196z M16.805,36.582l-0.294,0.348c1.101,0.755,2.332,1.356,3.666,1.79
		c0.504,0.165,1.019,0.3,1.521,0.413l0.052-0.455c-0.476-0.108-0.959-0.233-1.433-0.388C19.042,37.871,17.872,37.293,16.805,36.582z
		 M32.86,36.51l0.243,0.46c1.56-1.048,2.933-2.388,4.013-3.988l-0.459-0.246C35.623,34.235,34.319,35.518,32.86,36.51z
		 M36.745,16.697c0.991,1.489,1.708,3.167,2.084,4.931l0.525-0.058c-0.409-1.858-1.161-3.628-2.225-5.192L36.745,16.697z
		 M30.284,11.368c1.705,0.707,3.218,1.707,4.471,2.938l0.382-0.317c-1.339-1.275-2.914-2.331-4.728-3.056L30.284,11.368z
		 M27.413,10.053c-1.904-0.345-3.817-0.313-5.636,0.077l0.135,0.438c1.723-0.354,3.545-0.401,5.374-0.065L27.413,10.053z
		 M39.155,24.739c-0.016,1.456-0.244,2.906-0.72,4.358c-0.098,0.298-0.209,0.587-0.318,0.882l0.473,0.253
		c0.123-0.321,0.243-0.644,0.351-0.97c0.499-1.528,0.741-3.069,0.742-4.581L39.155,24.739z M24.859,39.003l-0.05,0.456
		c1.919,0.008,3.791-0.351,5.533-1.062l-0.22-0.431C28.459,38.636,26.684,38.991,24.859,39.003z M11.037,30.186
		c0.706,1.758,1.757,3.361,3.077,4.746l0.313-0.355c-1.247-1.309-2.237-2.848-2.887-4.523L11.037,30.186z"/>
</g>
<circle fill="#C3E557" stroke="#FFFFFF" stroke-miterlimit="10" cx="24.827" cy="24.735" r="3.992"/>
</svg>
